ISO-10303-21;
HEADER;
/* Generated by software containing ST-Developer
 * from STEP Tools, Inc. (www.steptools.com) 
 */

FILE_DESCRIPTION(
/* description */ (''),
/* implementation_level */ '2;1');

FILE_NAME(
/* name */ 'Case.step',
/* time_stamp */ '2026-02-03T14:50:47+11:00',
/* author */ (''),
/* organization */ (''),
/* preprocessor_version */ 'ST-DEVELOPER v20.1',
/* originating_system */ 'Autodesk Translation Framework v14.24.0.0',
/* authorisation */ '');

FILE_SCHEMA (('AUTOMOTIVE_DESIGN { 1 0 10303 214 3 1 1 }'));
ENDSEC;

DATA;
#10=MECHANICAL_DESIGN_GEOMETRIC_PRESENTATION_REPRESENTATION('',(#17,#18),
#1680);
#11=ITEM_DEFINED_TRANSFORMATION($,$,#1016,#1107);
#12=(
REPRESENTATION_RELATIONSHIP($,$,#1691,#1690)
REPRESENTATION_RELATIONSHIP_WITH_TRANSFORMATION(#11)
SHAPE_REPRESENTATION_RELATIONSHIP()
);
#13=CONTEXT_DEPENDENT_SHAPE_REPRESENTATION(#12,#1689);
#14=NEXT_ASSEMBLY_USAGE_OCCURRENCE('Case:1','Case:1','Case:1',#1693,#1694,
'Case:1');
#15=SHAPE_REPRESENTATION_RELATIONSHIP('SRR','None',#1691,#16);
#16=ADVANCED_BREP_SHAPE_REPRESENTATION('',(#19,#20),#1679);
#17=STYLED_ITEM('',(#1704),#19);
#18=STYLED_ITEM('',(#1704),#20);
#19=MANIFOLD_SOLID_BREP('Body',#1001);
#20=MANIFOLD_SOLID_BREP('Lid',#1002);
#21=FACE_BOUND('',#166,.T.);
#22=FACE_BOUND('',#167,.T.);
#23=FACE_BOUND('',#170,.T.);
#24=FACE_BOUND('',#173,.T.);
#25=FACE_BOUND('',#176,.T.);
#26=FACE_BOUND('',#177,.T.);
#27=FACE_BOUND('',#181,.T.);
#28=FACE_BOUND('',#187,.T.);
#29=FACE_BOUND('',#188,.T.);
#30=FACE_BOUND('',#189,.T.);
#31=FACE_BOUND('',#190,.T.);
#32=FACE_BOUND('',#191,.T.);
#33=FACE_BOUND('',#192,.T.);
#34=FACE_BOUND('',#193,.T.);
#35=FACE_BOUND('',#194,.T.);
#36=FACE_BOUND('',#196,.T.);
#37=PLANE('',#1020);
#38=PLANE('',#1024);
#39=PLANE('',#1028);
#40=PLANE('',#1032);
#41=PLANE('',#1036);
#42=PLANE('',#1040);
#43=PLANE('',#1044);
#44=PLANE('',#1048);
#45=PLANE('',#1049);
#46=PLANE('',#1050);
#47=PLANE('',#1051);
#48=PLANE('',#1052);
#49=PLANE('',#1053);
#50=PLANE('',#1054);
#51=PLANE('',#1055);
#52=PLANE('',#1056);
#53=PLANE('',#1057);
#54=PLANE('',#1058);
#55=PLANE('',#1059);
#56=PLANE('',#1060);
#57=PLANE('',#1061);
#58=PLANE('',#1062);
#59=PLANE('',#1063);
#60=PLANE('',#1064);
#61=PLANE('',#1065);
#62=PLANE('',#1072);
#63=PLANE('',#1073);
#64=PLANE('',#1078);
#65=PLANE('',#1081);
#66=PLANE('',#1082);
#67=PLANE('',#1083);
#68=PLANE('',#1084);
#69=PLANE('',#1089);
#70=PLANE('',#1092);
#71=PLANE('',#1095);
#72=PLANE('',#1098);
#73=PLANE('',#1101);
#74=PLANE('',#1102);
#75=PLANE('',#1103);
#76=PLANE('',#1104);
#77=PLANE('',#1105);
#78=PLANE('',#1106);
#79=FACE_OUTER_BOUND('',#137,.T.);
#80=FACE_OUTER_BOUND('',#138,.T.);
#81=FACE_OUTER_BOUND('',#139,.T.);
#82=FACE_OUTER_BOUND('',#140,.T.);
#83=FACE_OUTER_BOUND('',#141,.T.);
#84=FACE_OUTER_BOUND('',#142,.T.);
#85=FACE_OUTER_BOUND('',#143,.T.);
#86=FACE_OUTER_BOUND('',#144,.T.);
#87=FACE_OUTER_BOUND('',#145,.T.);
#88=FACE_OUTER_BOUND('',#146,.T.);
#89=FACE_OUTER_BOUND('',#147,.T.);
#90=FACE_OUTER_BOUND('',#148,.T.);
#91=FACE_OUTER_BOUND('',#149,.T.);
#92=FACE_OUTER_BOUND('',#150,.T.);
#93=FACE_OUTER_BOUND('',#151,.T.);
#94=FACE_OUTER_BOUND('',#152,.T.);
#95=FACE_OUTER_BOUND('',#153,.T.);
#96=FACE_OUTER_BOUND('',#154,.T.);
#97=FACE_OUTER_BOUND('',#155,.T.);
#98=FACE_OUTER_BOUND('',#156,.T.);
#99=FACE_OUTER_BOUND('',#157,.T.);
#100=FACE_OUTER_BOUND('',#158,.T.);
#101=FACE_OUTER_BOUND('',#159,.T.);
#102=FACE_OUTER_BOUND('',#160,.T.);
#103=FACE_OUTER_BOUND('',#161,.T.);
#104=FACE_OUTER_BOUND('',#162,.T.);
#105=FACE_OUTER_BOUND('',#163,.T.);
#106=FACE_OUTER_BOUND('',#164,.T.);
#107=FACE_OUTER_BOUND('',#165,.T.);
#108=FACE_OUTER_BOUND('',#168,.T.);
#109=FACE_OUTER_BOUND('',#169,.T.);
#110=FACE_OUTER_BOUND('',#171,.T.);
#111=FACE_OUTER_BOUND('',#172,.T.);
#112=FACE_OUTER_BOUND('',#174,.T.);
#113=FACE_OUTER_BOUND('',#175,.T.);
#114=FACE_OUTER_BOUND('',#178,.T.);
#115=FACE_OUTER_BOUND('',#179,.T.);
#116=FACE_OUTER_BOUND('',#180,.T.);
#117=FACE_OUTER_BOUND('',#182,.T.);
#118=FACE_OUTER_BOUND('',#183,.T.);
#119=FACE_OUTER_BOUND('',#184,.T.);
#120=FACE_OUTER_BOUND('',#185,.T.);
#121=FACE_OUTER_BOUND('',#186,.T.);
#122=FACE_OUTER_BOUND('',#195,.T.);
#123=FACE_OUTER_BOUND('',#197,.T.);
#124=FACE_OUTER_BOUND('',#198,.T.);
#125=FACE_OUTER_BOUND('',#199,.T.);
#126=FACE_OUTER_BOUND('',#200,.T.);
#127=FACE_OUTER_BOUND('',#201,.T.);
#128=FACE_OUTER_BOUND('',#202,.T.);
#129=FACE_OUTER_BOUND('',#203,.T.);
#130=FACE_OUTER_BOUND('',#204,.T.);
#131=FACE_OUTER_BOUND('',#205,.T.);
#132=FACE_OUTER_BOUND('',#206,.T.);
#133=FACE_OUTER_BOUND('',#207,.T.);
#134=FACE_OUTER_BOUND('',#208,.T.);
#135=FACE_OUTER_BOUND('',#209,.T.);
#136=FACE_OUTER_BOUND('',#210,.T.);
#137=EDGE_LOOP('',(#663,#664,#665,#666));
#138=EDGE_LOOP('',(#667));
#139=EDGE_LOOP('',(#668,#669,#670,#671));
#140=EDGE_LOOP('',(#672));
#141=EDGE_LOOP('',(#673,#674,#675,#676));
#142=EDGE_LOOP('',(#677));
#143=EDGE_LOOP('',(#678,#679,#680,#681));
#144=EDGE_LOOP('',(#682));
#145=EDGE_LOOP('',(#683,#684,#685,#686));
#146=EDGE_LOOP('',(#687));
#147=EDGE_LOOP('',(#688,#689,#690,#691));
#148=EDGE_LOOP('',(#692));
#149=EDGE_LOOP('',(#693,#694,#695,#696));
#150=EDGE_LOOP('',(#697));
#151=EDGE_LOOP('',(#698,#699,#700,#701));
#152=EDGE_LOOP('',(#702));
#153=EDGE_LOOP('',(#703,#704,#705,#706));
#154=EDGE_LOOP('',(#707,#708,#709,#710));
#155=EDGE_LOOP('',(#711,#712,#713,#714));
#156=EDGE_LOOP('',(#715,#716,#717,#718));
#157=EDGE_LOOP('',(#719,#720,#721,#722));
#158=EDGE_LOOP('',(#723,#724,#725,#726));
#159=EDGE_LOOP('',(#727,#728,#729,#730));
#160=EDGE_LOOP('',(#731,#732,#733,#734));
#161=EDGE_LOOP('',(#735,#736,#737,#738));
#162=EDGE_LOOP('',(#739,#740,#741,#742));
#163=EDGE_LOOP('',(#743,#744,#745,#746));
#164=EDGE_LOOP('',(#747,#748,#749,#750));
#165=EDGE_LOOP('',(#751,#752,#753,#754));
#166=EDGE_LOOP('',(#755,#756,#757,#758));
#167=EDGE_LOOP('',(#759,#760,#761,#762));
#168=EDGE_LOOP('',(#763,#764,#765,#766));
#169=EDGE_LOOP('',(#767,#768,#769,#770));
#170=EDGE_LOOP('',(#771,#772,#773,#774));
#171=EDGE_LOOP('',(#775,#776,#777,#778));
#172=EDGE_LOOP('',(#779,#780,#781,#782,#783,#784,#785,#786));
#173=EDGE_LOOP('',(#787,#788,#789,#790));
#174=EDGE_LOOP('',(#791,#792,#793,#794));
#175=EDGE_LOOP('',(#795,#796,#797,#798));
#176=EDGE_LOOP('',(#799,#800,#801,#802));
#177=EDGE_LOOP('',(#803,#804,#805,#806));
#178=EDGE_LOOP('',(#807,#808,#809,#810,#811,#812,#813,#814));
#179=EDGE_LOOP('',(#815,#816,#817,#818));
#180=EDGE_LOOP('',(#819,#820,#821,#822));
#181=EDGE_LOOP('',(#823,#824,#825,#826));
#182=EDGE_LOOP('',(#827,#828,#829,#830));
#183=EDGE_LOOP('',(#831,#832,#833,#834));
#184=EDGE_LOOP('',(#835,#836,#837,#838));
#185=EDGE_LOOP('',(#839,#840,#841,#842));
#186=EDGE_LOOP('',(#843,#844,#845,#846));
#187=EDGE_LOOP('',(#847));
#188=EDGE_LOOP('',(#848));
#189=EDGE_LOOP('',(#849));
#190=EDGE_LOOP('',(#850));
#191=EDGE_LOOP('',(#851));
#192=EDGE_LOOP('',(#852));
#193=EDGE_LOOP('',(#853));
#194=EDGE_LOOP('',(#854));
#195=EDGE_LOOP('',(#855,#856,#857,#858,#859,#860,#861,#862));
#196=EDGE_LOOP('',(#863,#864,#865,#866));
#197=EDGE_LOOP('',(#867,#868,#869,#870));
#198=EDGE_LOOP('',(#871,#872,#873,#874));
#199=EDGE_LOOP('',(#875,#876,#877,#878));
#200=EDGE_LOOP('',(#879,#880,#881,#882));
#201=EDGE_LOOP('',(#883,#884,#885,#886));
#202=EDGE_LOOP('',(#887,#888,#889,#890));
#203=EDGE_LOOP('',(#891,#892,#893,#894));
#204=EDGE_LOOP('',(#895,#896,#897,#898));
#205=EDGE_LOOP('',(#899,#900,#901,#902,#903,#904,#905,#906));
#206=EDGE_LOOP('',(#907,#908,#909,#910));
#207=EDGE_LOOP('',(#911,#912,#913,#914));
#208=EDGE_LOOP('',(#915,#916,#917,#918));
#209=EDGE_LOOP('',(#919,#920,#921,#922));
#210=EDGE_LOOP('',(#923,#924,#925,#926));
#211=LINE('',#1400,#311);
#212=LINE('',#1407,#312);
#213=LINE('',#1414,#313);
#214=LINE('',#1421,#314);
#215=LINE('',#1428,#315);
#216=LINE('',#1435,#316);
#217=LINE('',#1442,#317);
#218=LINE('',#1449,#318);
#219=LINE('',#1455,#319);
#220=LINE('',#1457,#320);
#221=LINE('',#1459,#321);
#222=LINE('',#1460,#322);
#223=LINE('',#1463,#323);
#224=LINE('',#1465,#324);
#225=LINE('',#1466,#325);
#226=LINE('',#1469,#326);
#227=LINE('',#1471,#327);
#228=LINE('',#1472,#328);
#229=LINE('',#1474,#329);
#230=LINE('',#1475,#330);
#231=LINE('',#1479,#331);
#232=LINE('',#1481,#332);
#233=LINE('',#1483,#333);
#234=LINE('',#1484,#334);
#235=LINE('',#1487,#335);
#236=LINE('',#1489,#336);
#237=LINE('',#1490,#337);
#238=LINE('',#1493,#338);
#239=LINE('',#1495,#339);
#240=LINE('',#1496,#340);
#241=LINE('',#1498,#341);
#242=LINE('',#1499,#342);
#243=LINE('',#1503,#343);
#244=LINE('',#1505,#344);
#245=LINE('',#1507,#345);
#246=LINE('',#1508,#346);
#247=LINE('',#1511,#347);
#248=LINE('',#1513,#348);
#249=LINE('',#1514,#349);
#250=LINE('',#1517,#350);
#251=LINE('',#1519,#351);
#252=LINE('',#1520,#352);
#253=LINE('',#1522,#353);
#254=LINE('',#1523,#354);
#255=LINE('',#1527,#355);
#256=LINE('',#1529,#356);
#257=LINE('',#1531,#357);
#258=LINE('',#1532,#358);
#259=LINE('',#1535,#359);
#260=LINE('',#1537,#360);
#261=LINE('',#1538,#361);
#262=LINE('',#1541,#362);
#263=LINE('',#1543,#363);
#264=LINE('',#1544,#364);
#265=LINE('',#1546,#365);
#266=LINE('',#1547,#366);
#267=LINE('',#1551,#367);
#268=LINE('',#1555,#368);
#269=LINE('',#1559,#369);
#270=LINE('',#1563,#370);
#271=LINE('',#1567,#371);
#272=LINE('',#1570,#372);
#273=LINE('',#1573,#373);
#274=LINE('',#1574,#374);
#275=LINE('',#1577,#375);
#276=LINE('',#1581,#376);
#277=LINE('',#1585,#377);
#278=LINE('',#1588,#378);
#279=LINE('',#1589,#379);
#280=LINE('',#1591,#380);
#281=LINE('',#1593,#381);
#282=LINE('',#1595,#382);
#283=LINE('',#1604,#383);
#284=LINE('',#1608,#384);
#285=LINE('',#1612,#385);
#286=LINE('',#1615,#386);
#287=LINE('',#1618,#387);
#288=LINE('',#1620,#388);
#289=LINE('',#1622,#389);
#290=LINE('',#1623,#390);
#291=LINE('',#1626,#391);
#292=LINE('',#1628,#392);
#293=LINE('',#1629,#393);
#294=LINE('',#1633,#394);
#295=LINE('',#1636,#395);
#296=LINE('',#1637,#396);
#297=LINE('',#1641,#397);
#298=LINE('',#1644,#398);
#299=LINE('',#1645,#399);
#300=LINE('',#1649,#400);
#301=LINE('',#1652,#401);
#302=LINE('',#1653,#402);
#303=LINE('',#1659,#403);
#304=LINE('',#1661,#404);
#305=LINE('',#1662,#405);
#306=LINE('',#1665,#406);
#307=LINE('',#1666,#407);
#308=LINE('',#1669,#408);
#309=LINE('',#1670,#409);
#310=LINE('',#1672,#410);
#311=VECTOR('',#1116,2.);
#312=VECTOR('',#1125,2.);
#313=VECTOR('',#1134,2.);
#314=VECTOR('',#1143,2.);
#315=VECTOR('',#1152,2.);
#316=VECTOR('',#1161,2.);
#317=VECTOR('',#1170,2.);
#318=VECTOR('',#1179,2.);
#319=VECTOR('',#1186,10.);
#320=VECTOR('',#1187,10.);
#321=VECTOR('',#1188,10.);
#322=VECTOR('',#1189,10.);
#323=VECTOR('',#1192,10.);
#324=VECTOR('',#1193,10.);
#325=VECTOR('',#1194,10.);
#326=VECTOR('',#1197,10.);
#327=VECTOR('',#1198,10.);
#328=VECTOR('',#1199,10.);
#329=VECTOR('',#1202,10.);
#330=VECTOR('',#1203,10.);
#331=VECTOR('',#1206,10.);
#332=VECTOR('',#1207,10.);
#333=VECTOR('',#1208,10.);
#334=VECTOR('',#1209,10.);
#335=VECTOR('',#1212,10.);
#336=VECTOR('',#1213,10.);
#337=VECTOR('',#1214,10.);
#338=VECTOR('',#1217,10.);
#339=VECTOR('',#1218,10.);
#340=VECTOR('',#1219,10.);
#341=VECTOR('',#1222,10.);
#342=VECTOR('',#1223,10.);
#343=VECTOR('',#1226,10.);
#344=VECTOR('',#1227,10.);
#345=VECTOR('',#1228,10.);
#346=VECTOR('',#1229,10.);
#347=VECTOR('',#1232,10.);
#348=VECTOR('',#1233,10.);
#349=VECTOR('',#1234,10.);
#350=VECTOR('',#1237,10.);
#351=VECTOR('',#1238,10.);
#352=VECTOR('',#1239,10.);
#353=VECTOR('',#1242,10.);
#354=VECTOR('',#1243,10.);
#355=VECTOR('',#1246,10.);
#356=VECTOR('',#1247,10.);
#357=VECTOR('',#1248,10.);
#358=VECTOR('',#1249,10.);
#359=VECTOR('',#1252,10.);
#360=VECTOR('',#1253,10.);
#361=VECTOR('',#1254,10.);
#362=VECTOR('',#1257,10.);
#363=VECTOR('',#1258,10.);
#364=VECTOR('',#1259,10.);
#365=VECTOR('',#1262,10.);
#366=VECTOR('',#1263,10.);
#367=VECTOR('',#1266,10.);
#368=VECTOR('',#1269,10.);
#369=VECTOR('',#1272,10.);
#370=VECTOR('',#1275,10.);
#371=VECTOR('',#1280,10.);
#372=VECTOR('',#1283,10.);
#373=VECTOR('',#1286,10.);
#374=VECTOR('',#1287,10.);
#375=VECTOR('',#1290,10.);
#376=VECTOR('',#1293,10.);
#377=VECTOR('',#1296,10.);
#378=VECTOR('',#1301,10.);
#379=VECTOR('',#1302,10.);
#380=VECTOR('',#1305,10.);
#381=VECTOR('',#1308,10.);
#382=VECTOR('',#1311,10.);
#383=VECTOR('',#1322,10.);
#384=VECTOR('',#1325,10.);
#385=VECTOR('',#1328,10.);
#386=VECTOR('',#1331,10.);
#387=VECTOR('',#1332,10.);
#388=VECTOR('',#1333,10.);
#389=VECTOR('',#1334,10.);
#390=VECTOR('',#1335,10.);
#391=VECTOR('',#1338,10.);
#392=VECTOR('',#1339,10.);
#393=VECTOR('',#1340,10.);
#394=VECTOR('',#1345,10.);
#395=VECTOR('',#1348,10.);
#396=VECTOR('',#1349,10.);
#397=VECTOR('',#1354,10.);
#398=VECTOR('',#1357,10.);
#399=VECTOR('',#1358,10.);
#400=VECTOR('',#1363,10.);
#401=VECTOR('',#1366,10.);
#402=VECTOR('',#1367,10.);
#403=VECTOR('',#1376,10.);
#404=VECTOR('',#1377,10.);
#405=VECTOR('',#1378,10.);
#406=VECTOR('',#1381,10.);
#407=VECTOR('',#1382,10.);
#408=VECTOR('',#1385,10.);
#409=VECTOR('',#1386,10.);
#410=VECTOR('',#1389,10.);
#411=CIRCLE('',#1018,2.);
#412=CIRCLE('',#1019,2.);
#413=CIRCLE('',#1022,2.);
#414=CIRCLE('',#1023,2.);
#415=CIRCLE('',#1026,2.);
#416=CIRCLE('',#1027,2.);
#417=CIRCLE('',#1030,2.);
#418=CIRCLE('',#1031,2.);
#419=CIRCLE('',#1034,2.);
#420=CIRCLE('',#1035,2.);
#421=CIRCLE('',#1038,2.);
#422=CIRCLE('',#1039,2.);
#423=CIRCLE('',#1042,2.);
#424=CIRCLE('',#1043,2.);
#425=CIRCLE('',#1046,2.);
#426=CIRCLE('',#1047,2.);
#427=CIRCLE('',#1066,5.00000000000001);
#428=CIRCLE('',#1067,5.);
#429=CIRCLE('',#1068,4.99999999999999);
#430=CIRCLE('',#1069,5.);
#431=CIRCLE('',#1071,5.);
#432=CIRCLE('',#1074,5.);
#433=CIRCLE('',#1075,5.);
#434=CIRCLE('',#1076,5.);
#435=CIRCLE('',#1085,5.);
#436=CIRCLE('',#1086,5.);
#437=CIRCLE('',#1087,5.00000000000001);
#438=CIRCLE('',#1088,4.99999999999999);
#439=CIRCLE('',#1091,5.);
#440=CIRCLE('',#1094,5.00000000000001);
#441=CIRCLE('',#1097,4.99999999999999);
#442=CIRCLE('',#1100,5.);
#443=VERTEX_POINT('',#1397);
#444=VERTEX_POINT('',#1399);
#445=VERTEX_POINT('',#1404);
#446=VERTEX_POINT('',#1406);
#447=VERTEX_POINT('',#1411);
#448=VERTEX_POINT('',#1413);
#449=VERTEX_POINT('',#1418);
#450=VERTEX_POINT('',#1420);
#451=VERTEX_POINT('',#1425);
#452=VERTEX_POINT('',#1427);
#453=VERTEX_POINT('',#1432);
#454=VERTEX_POINT('',#1434);
#455=VERTEX_POINT('',#1439);
#456=VERTEX_POINT('',#1441);
#457=VERTEX_POINT('',#1446);
#458=VERTEX_POINT('',#1448);
#459=VERTEX_POINT('',#1453);
#460=VERTEX_POINT('',#1454);
#461=VERTEX_POINT('',#1456);
#462=VERTEX_POINT('',#1458);
#463=VERTEX_POINT('',#1462);
#464=VERTEX_POINT('',#1464);
#465=VERTEX_POINT('',#1468);
#466=VERTEX_POINT('',#1470);
#467=VERTEX_POINT('',#1477);
#468=VERTEX_POINT('',#1478);
#469=VERTEX_POINT('',#1480);
#470=VERTEX_POINT('',#1482);
#471=VERTEX_POINT('',#1486);
#472=VERTEX_POINT('',#1488);
#473=VERTEX_POINT('',#1492);
#474=VERTEX_POINT('',#1494);
#475=VERTEX_POINT('',#1501);
#476=VERTEX_POINT('',#1502);
#477=VERTEX_POINT('',#1504);
#478=VERTEX_POINT('',#1506);
#479=VERTEX_POINT('',#1510);
#480=VERTEX_POINT('',#1512);
#481=VERTEX_POINT('',#1516);
#482=VERTEX_POINT('',#1518);
#483=VERTEX_POINT('',#1525);
#484=VERTEX_POINT('',#1526);
#485=VERTEX_POINT('',#1528);
#486=VERTEX_POINT('',#1530);
#487=VERTEX_POINT('',#1534);
#488=VERTEX_POINT('',#1536);
#489=VERTEX_POINT('',#1540);
#490=VERTEX_POINT('',#1542);
#491=VERTEX_POINT('',#1549);
#492=VERTEX_POINT('',#1550);
#493=VERTEX_POINT('',#1552);
#494=VERTEX_POINT('',#1554);
#495=VERTEX_POINT('',#1556);
#496=VERTEX_POINT('',#1558);
#497=VERTEX_POINT('',#1560);
#498=VERTEX_POINT('',#1562);
#499=VERTEX_POINT('',#1566);
#500=VERTEX_POINT('',#1568);
#501=VERTEX_POINT('',#1572);
#502=VERTEX_POINT('',#1576);
#503=VERTEX_POINT('',#1578);
#504=VERTEX_POINT('',#1580);
#505=VERTEX_POINT('',#1582);
#506=VERTEX_POINT('',#1584);
#507=VERTEX_POINT('',#1600);
#508=VERTEX_POINT('',#1601);
#509=VERTEX_POINT('',#1603);
#510=VERTEX_POINT('',#1605);
#511=VERTEX_POINT('',#1607);
#512=VERTEX_POINT('',#1609);
#513=VERTEX_POINT('',#1611);
#514=VERTEX_POINT('',#1613);
#515=VERTEX_POINT('',#1616);
#516=VERTEX_POINT('',#1617);
#517=VERTEX_POINT('',#1619);
#518=VERTEX_POINT('',#1621);
#519=VERTEX_POINT('',#1625);
#520=VERTEX_POINT('',#1627);
#521=VERTEX_POINT('',#1631);
#522=VERTEX_POINT('',#1635);
#523=VERTEX_POINT('',#1639);
#524=VERTEX_POINT('',#1643);
#525=VERTEX_POINT('',#1647);
#526=VERTEX_POINT('',#1651);
#527=VERTEX_POINT('',#1658);
#528=VERTEX_POINT('',#1660);
#529=VERTEX_POINT('',#1664);
#530=VERTEX_POINT('',#1668);
#531=EDGE_CURVE('',#443,#443,#411,.T.);
#532=EDGE_CURVE('',#443,#444,#211,.T.);
#533=EDGE_CURVE('',#444,#444,#412,.T.);
#534=EDGE_CURVE('',#445,#445,#413,.T.);
#535=EDGE_CURVE('',#445,#446,#212,.T.);
#536=EDGE_CURVE('',#446,#446,#414,.T.);
#537=EDGE_CURVE('',#447,#447,#415,.T.);
#538=EDGE_CURVE('',#447,#448,#213,.T.);
#539=EDGE_CURVE('',#448,#448,#416,.T.);
#540=EDGE_CURVE('',#449,#449,#417,.T.);
#541=EDGE_CURVE('',#449,#450,#214,.T.);
#542=EDGE_CURVE('',#450,#450,#418,.T.);
#543=EDGE_CURVE('',#451,#451,#419,.T.);
#544=EDGE_CURVE('',#451,#452,#215,.T.);
#545=EDGE_CURVE('',#452,#452,#420,.T.);
#546=EDGE_CURVE('',#453,#453,#421,.T.);
#547=EDGE_CURVE('',#453,#454,#216,.T.);
#548=EDGE_CURVE('',#454,#454,#422,.T.);
#549=EDGE_CURVE('',#455,#455,#423,.T.);
#550=EDGE_CURVE('',#455,#456,#217,.T.);
#551=EDGE_CURVE('',#456,#456,#424,.T.);
#552=EDGE_CURVE('',#457,#457,#425,.T.);
#553=EDGE_CURVE('',#457,#458,#218,.T.);
#554=EDGE_CURVE('',#458,#458,#426,.T.);
#555=EDGE_CURVE('',#459,#460,#219,.T.);
#556=EDGE_CURVE('',#461,#459,#220,.T.);
#557=EDGE_CURVE('',#462,#461,#221,.T.);
#558=EDGE_CURVE('',#462,#460,#222,.T.);
#559=EDGE_CURVE('',#460,#463,#223,.T.);
#560=EDGE_CURVE('',#464,#462,#224,.T.);
#561=EDGE_CURVE('',#464,#463,#225,.T.);
#562=EDGE_CURVE('',#463,#465,#226,.T.);
#563=EDGE_CURVE('',#466,#464,#227,.T.);
#564=EDGE_CURVE('',#466,#465,#228,.T.);
#565=EDGE_CURVE('',#465,#459,#229,.T.);
#566=EDGE_CURVE('',#461,#466,#230,.T.);
#567=EDGE_CURVE('',#467,#468,#231,.T.);
#568=EDGE_CURVE('',#469,#467,#232,.T.);
#569=EDGE_CURVE('',#470,#469,#233,.T.);
#570=EDGE_CURVE('',#470,#468,#234,.T.);
#571=EDGE_CURVE('',#468,#471,#235,.T.);
#572=EDGE_CURVE('',#472,#470,#236,.T.);
#573=EDGE_CURVE('',#472,#471,#237,.T.);
#574=EDGE_CURVE('',#471,#473,#238,.T.);
#575=EDGE_CURVE('',#474,#472,#239,.T.);
#576=EDGE_CURVE('',#474,#473,#240,.T.);
#577=EDGE_CURVE('',#473,#467,#241,.T.);
#578=EDGE_CURVE('',#469,#474,#242,.T.);
#579=EDGE_CURVE('',#475,#476,#243,.T.);
#580=EDGE_CURVE('',#477,#475,#244,.T.);
#581=EDGE_CURVE('',#478,#477,#245,.T.);
#582=EDGE_CURVE('',#478,#476,#246,.T.);
#583=EDGE_CURVE('',#476,#479,#247,.T.);
#584=EDGE_CURVE('',#480,#478,#248,.T.);
#585=EDGE_CURVE('',#480,#479,#249,.T.);
#586=EDGE_CURVE('',#479,#481,#250,.T.);
#587=EDGE_CURVE('',#482,#480,#251,.T.);
#588=EDGE_CURVE('',#482,#481,#252,.T.);
#589=EDGE_CURVE('',#481,#475,#253,.T.);
#590=EDGE_CURVE('',#477,#482,#254,.T.);
#591=EDGE_CURVE('',#483,#484,#255,.T.);
#592=EDGE_CURVE('',#483,#485,#256,.T.);
#593=EDGE_CURVE('',#486,#485,#257,.T.);
#594=EDGE_CURVE('',#484,#486,#258,.T.);
#595=EDGE_CURVE('',#484,#487,#259,.T.);
#596=EDGE_CURVE('',#488,#486,#260,.T.);
#597=EDGE_CURVE('',#487,#488,#261,.T.);
#598=EDGE_CURVE('',#487,#489,#262,.T.);
#599=EDGE_CURVE('',#490,#488,#263,.T.);
#600=EDGE_CURVE('',#489,#490,#264,.T.);
#601=EDGE_CURVE('',#489,#483,#265,.T.);
#602=EDGE_CURVE('',#485,#490,#266,.T.);
#603=EDGE_CURVE('',#491,#492,#267,.T.);
#604=EDGE_CURVE('',#492,#493,#427,.T.);
#605=EDGE_CURVE('',#493,#494,#268,.T.);
#606=EDGE_CURVE('',#494,#495,#428,.T.);
#607=EDGE_CURVE('',#495,#496,#269,.T.);
#608=EDGE_CURVE('',#496,#497,#429,.T.);
#609=EDGE_CURVE('',#497,#498,#270,.T.);
#610=EDGE_CURVE('',#498,#491,#430,.T.);
#611=EDGE_CURVE('',#492,#499,#271,.T.);
#612=EDGE_CURVE('',#499,#500,#431,.T.);
#613=EDGE_CURVE('',#500,#493,#272,.T.);
#614=EDGE_CURVE('',#501,#500,#273,.T.);
#615=EDGE_CURVE('',#494,#501,#274,.T.);
#616=EDGE_CURVE('',#499,#502,#275,.T.);
#617=EDGE_CURVE('',#503,#502,#432,.T.);
#618=EDGE_CURVE('',#503,#504,#276,.T.);
#619=EDGE_CURVE('',#505,#504,#433,.T.);
#620=EDGE_CURVE('',#505,#506,#277,.T.);
#621=EDGE_CURVE('',#501,#506,#434,.T.);
#622=EDGE_CURVE('',#498,#503,#278,.T.);
#623=EDGE_CURVE('',#502,#491,#279,.T.);
#624=EDGE_CURVE('',#504,#497,#280,.T.);
#625=EDGE_CURVE('',#496,#505,#281,.T.);
#626=EDGE_CURVE('',#506,#495,#282,.T.);
#627=EDGE_CURVE('',#507,#508,#435,.T.);
#628=EDGE_CURVE('',#509,#507,#283,.T.);
#629=EDGE_CURVE('',#510,#509,#436,.T.);
#630=EDGE_CURVE('',#511,#510,#284,.T.);
#631=EDGE_CURVE('',#512,#511,#437,.T.);
#632=EDGE_CURVE('',#513,#512,#285,.T.);
#633=EDGE_CURVE('',#514,#513,#438,.T.);
#634=EDGE_CURVE('',#508,#514,#286,.T.);
#635=EDGE_CURVE('',#515,#516,#287,.T.);
#636=EDGE_CURVE('',#517,#515,#288,.T.);
#637=EDGE_CURVE('',#518,#517,#289,.T.);
#638=EDGE_CURVE('',#516,#518,#290,.T.);
#639=EDGE_CURVE('',#507,#519,#291,.T.);
#640=EDGE_CURVE('',#520,#519,#292,.T.);
#641=EDGE_CURVE('',#509,#520,#293,.T.);
#642=EDGE_CURVE('',#521,#520,#439,.T.);
#643=EDGE_CURVE('',#510,#521,#294,.T.);
#644=EDGE_CURVE('',#522,#521,#295,.T.);
#645=EDGE_CURVE('',#511,#522,#296,.T.);
#646=EDGE_CURVE('',#523,#522,#440,.T.);
#647=EDGE_CURVE('',#512,#523,#297,.T.);
#648=EDGE_CURVE('',#524,#523,#298,.T.);
#649=EDGE_CURVE('',#513,#524,#299,.T.);
#650=EDGE_CURVE('',#525,#524,#441,.T.);
#651=EDGE_CURVE('',#514,#525,#300,.T.);
#652=EDGE_CURVE('',#526,#525,#301,.T.);
#653=EDGE_CURVE('',#508,#526,#302,.T.);
#654=EDGE_CURVE('',#519,#526,#442,.T.);
#655=EDGE_CURVE('',#516,#527,#303,.T.);
#656=EDGE_CURVE('',#528,#527,#304,.T.);
#657=EDGE_CURVE('',#515,#528,#305,.T.);
#658=EDGE_CURVE('',#529,#528,#306,.T.);
#659=EDGE_CURVE('',#517,#529,#307,.T.);
#660=EDGE_CURVE('',#530,#529,#308,.T.);
#661=EDGE_CURVE('',#518,#530,#309,.T.);
#662=EDGE_CURVE('',#527,#530,#310,.T.);
#663=ORIENTED_EDGE('',*,*,#531,.F.);
#664=ORIENTED_EDGE('',*,*,#532,.T.);
#665=ORIENTED_EDGE('',*,*,#533,.T.);
#666=ORIENTED_EDGE('',*,*,#532,.F.);
#667=ORIENTED_EDGE('',*,*,#533,.F.);
#668=ORIENTED_EDGE('',*,*,#534,.F.);
#669=ORIENTED_EDGE('',*,*,#535,.T.);
#670=ORIENTED_EDGE('',*,*,#536,.T.);
#671=ORIENTED_EDGE('',*,*,#535,.F.);
#672=ORIENTED_EDGE('',*,*,#536,.F.);
#673=ORIENTED_EDGE('',*,*,#537,.F.);
#674=ORIENTED_EDGE('',*,*,#538,.T.);
#675=ORIENTED_EDGE('',*,*,#539,.T.);
#676=ORIENTED_EDGE('',*,*,#538,.F.);
#677=ORIENTED_EDGE('',*,*,#539,.F.);
#678=ORIENTED_EDGE('',*,*,#540,.F.);
#679=ORIENTED_EDGE('',*,*,#541,.T.);
#680=ORIENTED_EDGE('',*,*,#542,.T.);
#681=ORIENTED_EDGE('',*,*,#541,.F.);
#682=ORIENTED_EDGE('',*,*,#542,.F.);
#683=ORIENTED_EDGE('',*,*,#543,.F.);
#684=ORIENTED_EDGE('',*,*,#544,.T.);
#685=ORIENTED_EDGE('',*,*,#545,.T.);
#686=ORIENTED_EDGE('',*,*,#544,.F.);
#687=ORIENTED_EDGE('',*,*,#545,.F.);
#688=ORIENTED_EDGE('',*,*,#546,.F.);
#689=ORIENTED_EDGE('',*,*,#547,.T.);
#690=ORIENTED_EDGE('',*,*,#548,.T.);
#691=ORIENTED_EDGE('',*,*,#547,.F.);
#692=ORIENTED_EDGE('',*,*,#548,.F.);
#693=ORIENTED_EDGE('',*,*,#549,.F.);
#694=ORIENTED_EDGE('',*,*,#550,.T.);
#695=ORIENTED_EDGE('',*,*,#551,.T.);
#696=ORIENTED_EDGE('',*,*,#550,.F.);
#697=ORIENTED_EDGE('',*,*,#551,.F.);
#698=ORIENTED_EDGE('',*,*,#552,.F.);
#699=ORIENTED_EDGE('',*,*,#553,.T.);
#700=ORIENTED_EDGE('',*,*,#554,.T.);
#701=ORIENTED_EDGE('',*,*,#553,.F.);
#702=ORIENTED_EDGE('',*,*,#554,.F.);
#703=ORIENTED_EDGE('',*,*,#555,.F.);
#704=ORIENTED_EDGE('',*,*,#556,.F.);
#705=ORIENTED_EDGE('',*,*,#557,.F.);
#706=ORIENTED_EDGE('',*,*,#558,.T.);
#707=ORIENTED_EDGE('',*,*,#559,.F.);
#708=ORIENTED_EDGE('',*,*,#558,.F.);
#709=ORIENTED_EDGE('',*,*,#560,.F.);
#710=ORIENTED_EDGE('',*,*,#561,.T.);
#711=ORIENTED_EDGE('',*,*,#562,.F.);
#712=ORIENTED_EDGE('',*,*,#561,.F.);
#713=ORIENTED_EDGE('',*,*,#563,.F.);
#714=ORIENTED_EDGE('',*,*,#564,.T.);
#715=ORIENTED_EDGE('',*,*,#565,.F.);
#716=ORIENTED_EDGE('',*,*,#564,.F.);
#717=ORIENTED_EDGE('',*,*,#566,.F.);
#718=ORIENTED_EDGE('',*,*,#556,.T.);
#719=ORIENTED_EDGE('',*,*,#567,.F.);
#720=ORIENTED_EDGE('',*,*,#568,.F.);
#721=ORIENTED_EDGE('',*,*,#569,.F.);
#722=ORIENTED_EDGE('',*,*,#570,.T.);
#723=ORIENTED_EDGE('',*,*,#571,.F.);
#724=ORIENTED_EDGE('',*,*,#570,.F.);
#725=ORIENTED_EDGE('',*,*,#572,.F.);
#726=ORIENTED_EDGE('',*,*,#573,.T.);
#727=ORIENTED_EDGE('',*,*,#574,.F.);
#728=ORIENTED_EDGE('',*,*,#573,.F.);
#729=ORIENTED_EDGE('',*,*,#575,.F.);
#730=ORIENTED_EDGE('',*,*,#576,.T.);
#731=ORIENTED_EDGE('',*,*,#577,.F.);
#732=ORIENTED_EDGE('',*,*,#576,.F.);
#733=ORIENTED_EDGE('',*,*,#578,.F.);
#734=ORIENTED_EDGE('',*,*,#568,.T.);
#735=ORIENTED_EDGE('',*,*,#579,.F.);
#736=ORIENTED_EDGE('',*,*,#580,.F.);
#737=ORIENTED_EDGE('',*,*,#581,.F.);
#738=ORIENTED_EDGE('',*,*,#582,.T.);
#739=ORIENTED_EDGE('',*,*,#583,.F.);
#740=ORIENTED_EDGE('',*,*,#582,.F.);
#741=ORIENTED_EDGE('',*,*,#584,.F.);
#742=ORIENTED_EDGE('',*,*,#585,.T.);
#743=ORIENTED_EDGE('',*,*,#586,.F.);
#744=ORIENTED_EDGE('',*,*,#585,.F.);
#745=ORIENTED_EDGE('',*,*,#587,.F.);
#746=ORIENTED_EDGE('',*,*,#588,.T.);
#747=ORIENTED_EDGE('',*,*,#589,.F.);
#748=ORIENTED_EDGE('',*,*,#588,.F.);
#749=ORIENTED_EDGE('',*,*,#590,.F.);
#750=ORIENTED_EDGE('',*,*,#580,.T.);
#751=ORIENTED_EDGE('',*,*,#591,.F.);
#752=ORIENTED_EDGE('',*,*,#592,.T.);
#753=ORIENTED_EDGE('',*,*,#593,.F.);
#754=ORIENTED_EDGE('',*,*,#594,.F.);
#755=ORIENTED_EDGE('',*,*,#567,.T.);
#756=ORIENTED_EDGE('',*,*,#571,.T.);
#757=ORIENTED_EDGE('',*,*,#574,.T.);
#758=ORIENTED_EDGE('',*,*,#577,.T.);
#759=ORIENTED_EDGE('',*,*,#579,.T.);
#760=ORIENTED_EDGE('',*,*,#583,.T.);
#761=ORIENTED_EDGE('',*,*,#586,.T.);
#762=ORIENTED_EDGE('',*,*,#589,.T.);
#763=ORIENTED_EDGE('',*,*,#595,.F.);
#764=ORIENTED_EDGE('',*,*,#594,.T.);
#765=ORIENTED_EDGE('',*,*,#596,.F.);
#766=ORIENTED_EDGE('',*,*,#597,.F.);
#767=ORIENTED_EDGE('',*,*,#598,.F.);
#768=ORIENTED_EDGE('',*,*,#597,.T.);
#769=ORIENTED_EDGE('',*,*,#599,.F.);
#770=ORIENTED_EDGE('',*,*,#600,.F.);
#771=ORIENTED_EDGE('',*,*,#555,.T.);
#772=ORIENTED_EDGE('',*,*,#559,.T.);
#773=ORIENTED_EDGE('',*,*,#562,.T.);
#774=ORIENTED_EDGE('',*,*,#565,.T.);
#775=ORIENTED_EDGE('',*,*,#601,.F.);
#776=ORIENTED_EDGE('',*,*,#600,.T.);
#777=ORIENTED_EDGE('',*,*,#602,.F.);
#778=ORIENTED_EDGE('',*,*,#592,.F.);
#779=ORIENTED_EDGE('',*,*,#603,.T.);
#780=ORIENTED_EDGE('',*,*,#604,.T.);
#781=ORIENTED_EDGE('',*,*,#605,.T.);
#782=ORIENTED_EDGE('',*,*,#606,.T.);
#783=ORIENTED_EDGE('',*,*,#607,.T.);
#784=ORIENTED_EDGE('',*,*,#608,.T.);
#785=ORIENTED_EDGE('',*,*,#609,.T.);
#786=ORIENTED_EDGE('',*,*,#610,.T.);
#787=ORIENTED_EDGE('',*,*,#602,.T.);
#788=ORIENTED_EDGE('',*,*,#599,.T.);
#789=ORIENTED_EDGE('',*,*,#596,.T.);
#790=ORIENTED_EDGE('',*,*,#593,.T.);
#791=ORIENTED_EDGE('',*,*,#611,.T.);
#792=ORIENTED_EDGE('',*,*,#612,.T.);
#793=ORIENTED_EDGE('',*,*,#613,.T.);
#794=ORIENTED_EDGE('',*,*,#604,.F.);
#795=ORIENTED_EDGE('',*,*,#613,.F.);
#796=ORIENTED_EDGE('',*,*,#614,.F.);
#797=ORIENTED_EDGE('',*,*,#615,.F.);
#798=ORIENTED_EDGE('',*,*,#605,.F.);
#799=ORIENTED_EDGE('',*,*,#569,.T.);
#800=ORIENTED_EDGE('',*,*,#578,.T.);
#801=ORIENTED_EDGE('',*,*,#575,.T.);
#802=ORIENTED_EDGE('',*,*,#572,.T.);
#803=ORIENTED_EDGE('',*,*,#581,.T.);
#804=ORIENTED_EDGE('',*,*,#590,.T.);
#805=ORIENTED_EDGE('',*,*,#587,.T.);
#806=ORIENTED_EDGE('',*,*,#584,.T.);
#807=ORIENTED_EDGE('',*,*,#612,.F.);
#808=ORIENTED_EDGE('',*,*,#616,.T.);
#809=ORIENTED_EDGE('',*,*,#617,.F.);
#810=ORIENTED_EDGE('',*,*,#618,.T.);
#811=ORIENTED_EDGE('',*,*,#619,.F.);
#812=ORIENTED_EDGE('',*,*,#620,.T.);
#813=ORIENTED_EDGE('',*,*,#621,.F.);
#814=ORIENTED_EDGE('',*,*,#614,.T.);
#815=ORIENTED_EDGE('',*,*,#622,.T.);
#816=ORIENTED_EDGE('',*,*,#617,.T.);
#817=ORIENTED_EDGE('',*,*,#623,.T.);
#818=ORIENTED_EDGE('',*,*,#610,.F.);
#819=ORIENTED_EDGE('',*,*,#622,.F.);
#820=ORIENTED_EDGE('',*,*,#609,.F.);
#821=ORIENTED_EDGE('',*,*,#624,.F.);
#822=ORIENTED_EDGE('',*,*,#618,.F.);
#823=ORIENTED_EDGE('',*,*,#557,.T.);
#824=ORIENTED_EDGE('',*,*,#566,.T.);
#825=ORIENTED_EDGE('',*,*,#563,.T.);
#826=ORIENTED_EDGE('',*,*,#560,.T.);
#827=ORIENTED_EDGE('',*,*,#625,.T.);
#828=ORIENTED_EDGE('',*,*,#619,.T.);
#829=ORIENTED_EDGE('',*,*,#624,.T.);
#830=ORIENTED_EDGE('',*,*,#608,.F.);
#831=ORIENTED_EDGE('',*,*,#615,.T.);
#832=ORIENTED_EDGE('',*,*,#621,.T.);
#833=ORIENTED_EDGE('',*,*,#626,.T.);
#834=ORIENTED_EDGE('',*,*,#606,.F.);
#835=ORIENTED_EDGE('',*,*,#611,.F.);
#836=ORIENTED_EDGE('',*,*,#603,.F.);
#837=ORIENTED_EDGE('',*,*,#623,.F.);
#838=ORIENTED_EDGE('',*,*,#616,.F.);
#839=ORIENTED_EDGE('',*,*,#625,.F.);
#840=ORIENTED_EDGE('',*,*,#607,.F.);
#841=ORIENTED_EDGE('',*,*,#626,.F.);
#842=ORIENTED_EDGE('',*,*,#620,.F.);
#843=ORIENTED_EDGE('',*,*,#591,.T.);
#844=ORIENTED_EDGE('',*,*,#595,.T.);
#845=ORIENTED_EDGE('',*,*,#598,.T.);
#846=ORIENTED_EDGE('',*,*,#601,.T.);
#847=ORIENTED_EDGE('',*,*,#531,.T.);
#848=ORIENTED_EDGE('',*,*,#534,.T.);
#849=ORIENTED_EDGE('',*,*,#537,.T.);
#850=ORIENTED_EDGE('',*,*,#540,.T.);
#851=ORIENTED_EDGE('',*,*,#543,.T.);
#852=ORIENTED_EDGE('',*,*,#546,.T.);
#853=ORIENTED_EDGE('',*,*,#549,.T.);
#854=ORIENTED_EDGE('',*,*,#552,.T.);
#855=ORIENTED_EDGE('',*,*,#627,.F.);
#856=ORIENTED_EDGE('',*,*,#628,.F.);
#857=ORIENTED_EDGE('',*,*,#629,.F.);
#858=ORIENTED_EDGE('',*,*,#630,.F.);
#859=ORIENTED_EDGE('',*,*,#631,.F.);
#860=ORIENTED_EDGE('',*,*,#632,.F.);
#861=ORIENTED_EDGE('',*,*,#633,.F.);
#862=ORIENTED_EDGE('',*,*,#634,.F.);
#863=ORIENTED_EDGE('',*,*,#635,.F.);
#864=ORIENTED_EDGE('',*,*,#636,.F.);
#865=ORIENTED_EDGE('',*,*,#637,.F.);
#866=ORIENTED_EDGE('',*,*,#638,.F.);
#867=ORIENTED_EDGE('',*,*,#628,.T.);
#868=ORIENTED_EDGE('',*,*,#639,.T.);
#869=ORIENTED_EDGE('',*,*,#640,.F.);
#870=ORIENTED_EDGE('',*,*,#641,.F.);
#871=ORIENTED_EDGE('',*,*,#629,.T.);
#872=ORIENTED_EDGE('',*,*,#641,.T.);
#873=ORIENTED_EDGE('',*,*,#642,.F.);
#874=ORIENTED_EDGE('',*,*,#643,.F.);
#875=ORIENTED_EDGE('',*,*,#630,.T.);
#876=ORIENTED_EDGE('',*,*,#643,.T.);
#877=ORIENTED_EDGE('',*,*,#644,.F.);
#878=ORIENTED_EDGE('',*,*,#645,.F.);
#879=ORIENTED_EDGE('',*,*,#631,.T.);
#880=ORIENTED_EDGE('',*,*,#645,.T.);
#881=ORIENTED_EDGE('',*,*,#646,.F.);
#882=ORIENTED_EDGE('',*,*,#647,.F.);
#883=ORIENTED_EDGE('',*,*,#632,.T.);
#884=ORIENTED_EDGE('',*,*,#647,.T.);
#885=ORIENTED_EDGE('',*,*,#648,.F.);
#886=ORIENTED_EDGE('',*,*,#649,.F.);
#887=ORIENTED_EDGE('',*,*,#633,.T.);
#888=ORIENTED_EDGE('',*,*,#649,.T.);
#889=ORIENTED_EDGE('',*,*,#650,.F.);
#890=ORIENTED_EDGE('',*,*,#651,.F.);
#891=ORIENTED_EDGE('',*,*,#634,.T.);
#892=ORIENTED_EDGE('',*,*,#651,.T.);
#893=ORIENTED_EDGE('',*,*,#652,.F.);
#894=ORIENTED_EDGE('',*,*,#653,.F.);
#895=ORIENTED_EDGE('',*,*,#627,.T.);
#896=ORIENTED_EDGE('',*,*,#653,.T.);
#897=ORIENTED_EDGE('',*,*,#654,.F.);
#898=ORIENTED_EDGE('',*,*,#639,.F.);
#899=ORIENTED_EDGE('',*,*,#654,.T.);
#900=ORIENTED_EDGE('',*,*,#652,.T.);
#901=ORIENTED_EDGE('',*,*,#650,.T.);
#902=ORIENTED_EDGE('',*,*,#648,.T.);
#903=ORIENTED_EDGE('',*,*,#646,.T.);
#904=ORIENTED_EDGE('',*,*,#644,.T.);
#905=ORIENTED_EDGE('',*,*,#642,.T.);
#906=ORIENTED_EDGE('',*,*,#640,.T.);
#907=ORIENTED_EDGE('',*,*,#635,.T.);
#908=ORIENTED_EDGE('',*,*,#655,.T.);
#909=ORIENTED_EDGE('',*,*,#656,.F.);
#910=ORIENTED_EDGE('',*,*,#657,.F.);
#911=ORIENTED_EDGE('',*,*,#636,.T.);
#912=ORIENTED_EDGE('',*,*,#657,.T.);
#913=ORIENTED_EDGE('',*,*,#658,.F.);
#914=ORIENTED_EDGE('',*,*,#659,.F.);
#915=ORIENTED_EDGE('',*,*,#637,.T.);
#916=ORIENTED_EDGE('',*,*,#659,.T.);
#917=ORIENTED_EDGE('',*,*,#660,.F.);
#918=ORIENTED_EDGE('',*,*,#661,.F.);
#919=ORIENTED_EDGE('',*,*,#638,.T.);
#920=ORIENTED_EDGE('',*,*,#661,.T.);
#921=ORIENTED_EDGE('',*,*,#662,.F.);
#922=ORIENTED_EDGE('',*,*,#655,.F.);
#923=ORIENTED_EDGE('',*,*,#662,.T.);
#924=ORIENTED_EDGE('',*,*,#660,.T.);
#925=ORIENTED_EDGE('',*,*,#658,.T.);
#926=ORIENTED_EDGE('',*,*,#656,.T.);
#927=CYLINDRICAL_SURFACE('',#1017,2.);
#928=CYLINDRICAL_SURFACE('',#1021,2.);
#929=CYLINDRICAL_SURFACE('',#1025,2.);
#930=CYLINDRICAL_SURFACE('',#1029,2.);
#931=CYLINDRICAL_SURFACE('',#1033,2.);
#932=CYLINDRICAL_SURFACE('',#1037,2.);
#933=CYLINDRICAL_SURFACE('',#1041,2.);
#934=CYLINDRICAL_SURFACE('',#1045,2.);
#935=CYLINDRICAL_SURFACE('',#1070,5.);
#936=CYLINDRICAL_SURFACE('',#1077,5.);
#937=CYLINDRICAL_SURFACE('',#1079,5.);
#938=CYLINDRICAL_SURFACE('',#1080,5.);
#939=CYLINDRICAL_SURFACE('',#1090,5.);
#940=CYLINDRICAL_SURFACE('',#1093,5.00000000000001);
#941=CYLINDRICAL_SURFACE('',#1096,4.99999999999999);
#942=CYLINDRICAL_SURFACE('',#1099,5.);
#943=ADVANCED_FACE('',(#79),#927,.F.);
#944=ADVANCED_FACE('',(#80),#37,.T.);
#945=ADVANCED_FACE('',(#81),#928,.F.);
#946=ADVANCED_FACE('',(#82),#38,.T.);
#947=ADVANCED_FACE('',(#83),#929,.F.);
#948=ADVANCED_FACE('',(#84),#39,.T.);
#949=ADVANCED_FACE('',(#85),#930,.F.);
#950=ADVANCED_FACE('',(#86),#40,.T.);
#951=ADVANCED_FACE('',(#87),#931,.F.);
#952=ADVANCED_FACE('',(#88),#41,.T.);
#953=ADVANCED_FACE('',(#89),#932,.F.);
#954=ADVANCED_FACE('',(#90),#42,.T.);
#955=ADVANCED_FACE('',(#91),#933,.F.);
#956=ADVANCED_FACE('',(#92),#43,.T.);
#957=ADVANCED_FACE('',(#93),#934,.F.);
#958=ADVANCED_FACE('',(#94),#44,.T.);
#959=ADVANCED_FACE('',(#95),#45,.F.);
#960=ADVANCED_FACE('',(#96),#46,.F.);
#961=ADVANCED_FACE('',(#97),#47,.F.);
#962=ADVANCED_FACE('',(#98),#48,.F.);
#963=ADVANCED_FACE('',(#99),#49,.F.);
#964=ADVANCED_FACE('',(#100),#50,.F.);
#965=ADVANCED_FACE('',(#101),#51,.F.);
#966=ADVANCED_FACE('',(#102),#52,.F.);
#967=ADVANCED_FACE('',(#103),#53,.F.);
#968=ADVANCED_FACE('',(#104),#54,.F.);
#969=ADVANCED_FACE('',(#105),#55,.F.);
#970=ADVANCED_FACE('',(#106),#56,.F.);
#971=ADVANCED_FACE('',(#107,#21,#22),#57,.T.);
#972=ADVANCED_FACE('',(#108),#58,.T.);
#973=ADVANCED_FACE('',(#109,#23),#59,.T.);
#974=ADVANCED_FACE('',(#110),#60,.T.);
#975=ADVANCED_FACE('',(#111,#24),#61,.T.);
#976=ADVANCED_FACE('',(#112),#935,.T.);
#977=ADVANCED_FACE('',(#113,#25,#26),#62,.T.);
#978=ADVANCED_FACE('',(#114),#63,.F.);
#979=ADVANCED_FACE('',(#115),#936,.T.);
#980=ADVANCED_FACE('',(#116,#27),#64,.T.);
#981=ADVANCED_FACE('',(#117),#937,.T.);
#982=ADVANCED_FACE('',(#118),#938,.T.);
#983=ADVANCED_FACE('',(#119),#65,.T.);
#984=ADVANCED_FACE('',(#120),#66,.T.);
#985=ADVANCED_FACE('',(#121,#28,#29,#30,#31,#32,#33,#34,#35),#67,.T.);
#986=ADVANCED_FACE('',(#122,#36),#68,.F.);
#987=ADVANCED_FACE('',(#123),#69,.T.);
#988=ADVANCED_FACE('',(#124),#939,.T.);
#989=ADVANCED_FACE('',(#125),#70,.T.);
#990=ADVANCED_FACE('',(#126),#940,.T.);
#991=ADVANCED_FACE('',(#127),#71,.T.);
#992=ADVANCED_FACE('',(#128),#941,.T.);
#993=ADVANCED_FACE('',(#129),#72,.T.);
#994=ADVANCED_FACE('',(#130),#942,.T.);
#995=ADVANCED_FACE('',(#131),#73,.T.);
#996=ADVANCED_FACE('',(#132),#74,.T.);
#997=ADVANCED_FACE('',(#133),#75,.T.);
#998=ADVANCED_FACE('',(#134),#76,.T.);
#999=ADVANCED_FACE('',(#135),#77,.T.);
#1000=ADVANCED_FACE('',(#136),#78,.T.);
#1001=CLOSED_SHELL('',(#943,#944,#945,#946,#947,#948,#949,#950,#951,#952,
#953,#954,#955,#956,#957,#958,#959,#960,#961,#962,#963,#964,#965,#966,#967,
#968,#969,#970,#971,#972,#973,#974,#975,#976,#977,#978,#979,#980,#981,#982,
#983,#984,#985));
#1002=CLOSED_SHELL('',(#986,#987,#988,#989,#990,#991,#992,#993,#994,#995,
#996,#997,#998,#999,#1000));
#1003=DERIVED_UNIT_ELEMENT(#1005,1.);
#1004=DERIVED_UNIT_ELEMENT(#1682,-3.);
#1005=(
MASS_UNIT()
NAMED_UNIT(*)
SI_UNIT(.KILO.,.GRAM.)
);
#1006=DERIVED_UNIT((#1003,#1004));
#1007=MEASURE_REPRESENTATION_ITEM('density measure',
POSITIVE_RATIO_MEASURE(7850.),#1006);
#1008=PROPERTY_DEFINITION_REPRESENTATION(#1013,#1010);
#1009=PROPERTY_DEFINITION_REPRESENTATION(#1014,#1011);
#1010=REPRESENTATION('material name',(#1012),#1679);
#1011=REPRESENTATION('density',(#1007),#1679);
#1012=DESCRIPTIVE_REPRESENTATION_ITEM('Steel','Steel');
#1013=PROPERTY_DEFINITION('material property','material name',#1694);
#1014=PROPERTY_DEFINITION('material property','density of part',#1694);
#1015=AXIS2_PLACEMENT_3D('',#1394,#1108,#1109);
#1016=AXIS2_PLACEMENT_3D('',#1395,#1110,#1111);
#1017=AXIS2_PLACEMENT_3D('',#1396,#1112,#1113);
#1018=AXIS2_PLACEMENT_3D('',#1398,#1114,#1115);
#1019=AXIS2_PLACEMENT_3D('',#1401,#1117,#1118);
#1020=AXIS2_PLACEMENT_3D('',#1402,#1119,#1120);
#1021=AXIS2_PLACEMENT_3D('',#1403,#1121,#1122);
#1022=AXIS2_PLACEMENT_3D('',#1405,#1123,#1124);
#1023=AXIS2_PLACEMENT_3D('',#1408,#1126,#1127);
#1024=AXIS2_PLACEMENT_3D('',#1409,#1128,#1129);
#1025=AXIS2_PLACEMENT_3D('',#1410,#1130,#1131);
#1026=AXIS2_PLACEMENT_3D('',#1412,#1132,#1133);
#1027=AXIS2_PLACEMENT_3D('',#1415,#1135,#1136);
#1028=AXIS2_PLACEMENT_3D('',#1416,#1137,#1138);
#1029=AXIS2_PLACEMENT_3D('',#1417,#1139,#1140);
#1030=AXIS2_PLACEMENT_3D('',#1419,#1141,#1142);
#1031=AXIS2_PLACEMENT_3D('',#1422,#1144,#1145);
#1032=AXIS2_PLACEMENT_3D('',#1423,#1146,#1147);
#1033=AXIS2_PLACEMENT_3D('',#1424,#1148,#1149);
#1034=AXIS2_PLACEMENT_3D('',#1426,#1150,#1151);
#1035=AXIS2_PLACEMENT_3D('',#1429,#1153,#1154);
#1036=AXIS2_PLACEMENT_3D('',#1430,#1155,#1156);
#1037=AXIS2_PLACEMENT_3D('',#1431,#1157,#1158);
#1038=AXIS2_PLACEMENT_3D('',#1433,#1159,#1160);
#1039=AXIS2_PLACEMENT_3D('',#1436,#1162,#1163);
#1040=AXIS2_PLACEMENT_3D('',#1437,#1164,#1165);
#1041=AXIS2_PLACEMENT_3D('',#1438,#1166,#1167);
#1042=AXIS2_PLACEMENT_3D('',#1440,#1168,#1169);
#1043=AXIS2_PLACEMENT_3D('',#1443,#1171,#1172);
#1044=AXIS2_PLACEMENT_3D('',#1444,#1173,#1174);
#1045=AXIS2_PLACEMENT_3D('',#1445,#1175,#1176);
#1046=AXIS2_PLACEMENT_3D('',#1447,#1177,#1178);
#1047=AXIS2_PLACEMENT_3D('',#1450,#1180,#1181);
#1048=AXIS2_PLACEMENT_3D('',#1451,#1182,#1183);
#1049=AXIS2_PLACEMENT_3D('',#1452,#1184,#1185);
#1050=AXIS2_PLACEMENT_3D('',#1461,#1190,#1191);
#1051=AXIS2_PLACEMENT_3D('',#1467,#1195,#1196);
#1052=AXIS2_PLACEMENT_3D('',#1473,#1200,#1201);
#1053=AXIS2_PLACEMENT_3D('',#1476,#1204,#1205);
#1054=AXIS2_PLACEMENT_3D('',#1485,#1210,#1211);
#1055=AXIS2_PLACEMENT_3D('',#1491,#1215,#1216);
#1056=AXIS2_PLACEMENT_3D('',#1497,#1220,#1221);
#1057=AXIS2_PLACEMENT_3D('',#1500,#1224,#1225);
#1058=AXIS2_PLACEMENT_3D('',#1509,#1230,#1231);
#1059=AXIS2_PLACEMENT_3D('',#1515,#1235,#1236);
#1060=AXIS2_PLACEMENT_3D('',#1521,#1240,#1241);
#1061=AXIS2_PLACEMENT_3D('',#1524,#1244,#1245);
#1062=AXIS2_PLACEMENT_3D('',#1533,#1250,#1251);
#1063=AXIS2_PLACEMENT_3D('',#1539,#1255,#1256);
#1064=AXIS2_PLACEMENT_3D('',#1545,#1260,#1261);
#1065=AXIS2_PLACEMENT_3D('',#1548,#1264,#1265);
#1066=AXIS2_PLACEMENT_3D('',#1553,#1267,#1268);
#1067=AXIS2_PLACEMENT_3D('',#1557,#1270,#1271);
#1068=AXIS2_PLACEMENT_3D('',#1561,#1273,#1274);
#1069=AXIS2_PLACEMENT_3D('',#1564,#1276,#1277);
#1070=AXIS2_PLACEMENT_3D('',#1565,#1278,#1279);
#1071=AXIS2_PLACEMENT_3D('',#1569,#1281,#1282);
#1072=AXIS2_PLACEMENT_3D('',#1571,#1284,#1285);
#1073=AXIS2_PLACEMENT_3D('',#1575,#1288,#1289);
#1074=AXIS2_PLACEMENT_3D('',#1579,#1291,#1292);
#1075=AXIS2_PLACEMENT_3D('',#1583,#1294,#1295);
#1076=AXIS2_PLACEMENT_3D('',#1586,#1297,#1298);
#1077=AXIS2_PLACEMENT_3D('',#1587,#1299,#1300);
#1078=AXIS2_PLACEMENT_3D('',#1590,#1303,#1304);
#1079=AXIS2_PLACEMENT_3D('',#1592,#1306,#1307);
#1080=AXIS2_PLACEMENT_3D('',#1594,#1309,#1310);
#1081=AXIS2_PLACEMENT_3D('',#1596,#1312,#1313);
#1082=AXIS2_PLACEMENT_3D('',#1597,#1314,#1315);
#1083=AXIS2_PLACEMENT_3D('',#1598,#1316,#1317);
#1084=AXIS2_PLACEMENT_3D('',#1599,#1318,#1319);
#1085=AXIS2_PLACEMENT_3D('',#1602,#1320,#1321);
#1086=AXIS2_PLACEMENT_3D('',#1606,#1323,#1324);
#1087=AXIS2_PLACEMENT_3D('',#1610,#1326,#1327);
#1088=AXIS2_PLACEMENT_3D('',#1614,#1329,#1330);
#1089=AXIS2_PLACEMENT_3D('',#1624,#1336,#1337);
#1090=AXIS2_PLACEMENT_3D('',#1630,#1341,#1342);
#1091=AXIS2_PLACEMENT_3D('',#1632,#1343,#1344);
#1092=AXIS2_PLACEMENT_3D('',#1634,#1346,#1347);
#1093=AXIS2_PLACEMENT_3D('',#1638,#1350,#1351);
#1094=AXIS2_PLACEMENT_3D('',#1640,#1352,#1353);
#1095=AXIS2_PLACEMENT_3D('',#1642,#1355,#1356);
#1096=AXIS2_PLACEMENT_3D('',#1646,#1359,#1360);
#1097=AXIS2_PLACEMENT_3D('',#1648,#1361,#1362);
#1098=AXIS2_PLACEMENT_3D('',#1650,#1364,#1365);
#1099=AXIS2_PLACEMENT_3D('',#1654,#1368,#1369);
#1100=AXIS2_PLACEMENT_3D('',#1655,#1370,#1371);
#1101=AXIS2_PLACEMENT_3D('',#1656,#1372,#1373);
#1102=AXIS2_PLACEMENT_3D('',#1657,#1374,#1375);
#1103=AXIS2_PLACEMENT_3D('',#1663,#1379,#1380);
#1104=AXIS2_PLACEMENT_3D('',#1667,#1383,#1384);
#1105=AXIS2_PLACEMENT_3D('',#1671,#1387,#1388);
#1106=AXIS2_PLACEMENT_3D('',#1673,#1390,#1391);
#1107=AXIS2_PLACEMENT_3D('',#1674,#1392,#1393);
#1108=DIRECTION('axis',(0.,0.,1.));
#1109=DIRECTION('refdir',(1.,0.,0.));
#1110=DIRECTION('axis',(0.,0.,1.));
#1111=DIRECTION('refdir',(1.,0.,0.));
#1112=DIRECTION('center_axis',(0.,0.,-1.));
#1113=DIRECTION('ref_axis',(-1.,0.,0.));
#1114=DIRECTION('center_axis',(0.,0.,-1.));
#1115=DIRECTION('ref_axis',(-1.,0.,0.));
#1116=DIRECTION('',(0.,0.,-1.));
#1117=DIRECTION('center_axis',(0.,0.,-1.));
#1118=DIRECTION('ref_axis',(-1.,0.,0.));
#1119=DIRECTION('center_axis',(0.,0.,1.));
#1120=DIRECTION('ref_axis',(-1.,0.,0.));
#1121=DIRECTION('center_axis',(0.,0.,-1.));
#1122=DIRECTION('ref_axis',(-1.,0.,0.));
#1123=DIRECTION('center_axis',(0.,0.,-1.));
#1124=DIRECTION('ref_axis',(-1.,0.,0.));
#1125=DIRECTION('',(0.,0.,-1.));
#1126=DIRECTION('center_axis',(0.,0.,-1.));
#1127=DIRECTION('ref_axis',(-1.,0.,0.));
#1128=DIRECTION('center_axis',(0.,0.,1.));
#1129=DIRECTION('ref_axis',(-1.,0.,0.));
#1130=DIRECTION('center_axis',(0.,0.,-1.));
#1131=DIRECTION('ref_axis',(-1.,0.,0.));
#1132=DIRECTION('center_axis',(0.,0.,-1.));
#1133=DIRECTION('ref_axis',(-1.,0.,0.));
#1134=DIRECTION('',(0.,0.,-1.));
#1135=DIRECTION('center_axis',(0.,0.,-1.));
#1136=DIRECTION('ref_axis',(-1.,0.,0.));
#1137=DIRECTION('center_axis',(0.,0.,1.));
#1138=DIRECTION('ref_axis',(-1.,0.,0.));
#1139=DIRECTION('center_axis',(0.,0.,-1.));
#1140=DIRECTION('ref_axis',(-1.,0.,0.));
#1141=DIRECTION('center_axis',(0.,0.,-1.));
#1142=DIRECTION('ref_axis',(-1.,0.,0.));
#1143=DIRECTION('',(0.,0.,-1.));
#1144=DIRECTION('center_axis',(0.,0.,-1.));
#1145=DIRECTION('ref_axis',(-1.,0.,0.));
#1146=DIRECTION('center_axis',(0.,0.,1.));
#1147=DIRECTION('ref_axis',(-1.,0.,0.));
#1148=DIRECTION('center_axis',(0.,0.,-1.));
#1149=DIRECTION('ref_axis',(-1.,0.,0.));
#1150=DIRECTION('center_axis',(0.,0.,-1.));
#1151=DIRECTION('ref_axis',(-1.,0.,0.));
#1152=DIRECTION('',(0.,0.,-1.));
#1153=DIRECTION('center_axis',(0.,0.,-1.));
#1154=DIRECTION('ref_axis',(-1.,0.,0.));
#1155=DIRECTION('center_axis',(0.,0.,1.));
#1156=DIRECTION('ref_axis',(-1.,0.,0.));
#1157=DIRECTION('center_axis',(0.,0.,-1.));
#1158=DIRECTION('ref_axis',(-1.,0.,0.));
#1159=DIRECTION('center_axis',(0.,0.,-1.));
#1160=DIRECTION('ref_axis',(-1.,0.,0.));
#1161=DIRECTION('',(0.,0.,-1.));
#1162=DIRECTION('center_axis',(0.,0.,-1.));
#1163=DIRECTION('ref_axis',(-1.,0.,0.));
#1164=DIRECTION('center_axis',(0.,0.,1.));
#1165=DIRECTION('ref_axis',(-1.,0.,0.));
#1166=DIRECTION('center_axis',(0.,0.,-1.));
#1167=DIRECTION('ref_axis',(-1.,0.,0.));
#1168=DIRECTION('center_axis',(0.,0.,-1.));
#1169=DIRECTION('ref_axis',(-1.,0.,0.));
#1170=DIRECTION('',(0.,0.,-1.));
#1171=DIRECTION('center_axis',(0.,0.,-1.));
#1172=DIRECTION('ref_axis',(-1.,0.,0.));
#1173=DIRECTION('center_axis',(0.,0.,1.));
#1174=DIRECTION('ref_axis',(-1.,0.,0.));
#1175=DIRECTION('center_axis',(0.,0.,-1.));
#1176=DIRECTION('ref_axis',(-1.,0.,0.));
#1177=DIRECTION('center_axis',(0.,0.,-1.));
#1178=DIRECTION('ref_axis',(-1.,0.,0.));
#1179=DIRECTION('',(0.,0.,-1.));
#1180=DIRECTION('center_axis',(0.,0.,-1.));
#1181=DIRECTION('ref_axis',(-1.,0.,0.));
#1182=DIRECTION('center_axis',(0.,0.,1.));
#1183=DIRECTION('ref_axis',(-1.,0.,0.));
#1184=DIRECTION('center_axis',(1.,0.,0.));
#1185=DIRECTION('ref_axis',(0.,0.,1.));
#1186=DIRECTION('',(0.,0.,-1.));
#1187=DIRECTION('',(0.,-1.,0.));
#1188=DIRECTION('',(0.,0.,1.));
#1189=DIRECTION('',(0.,-1.,0.));
#1190=DIRECTION('center_axis',(0.,0.,-1.));
#1191=DIRECTION('ref_axis',(1.,0.,0.));
#1192=DIRECTION('',(-1.,0.,0.));
#1193=DIRECTION('',(1.,0.,0.));
#1194=DIRECTION('',(0.,-1.,0.));
#1195=DIRECTION('center_axis',(-1.,0.,0.));
#1196=DIRECTION('ref_axis',(0.,0.,-1.));
#1197=DIRECTION('',(0.,0.,1.));
#1198=DIRECTION('',(0.,0.,-1.));
#1199=DIRECTION('',(0.,-1.,0.));
#1200=DIRECTION('center_axis',(0.,0.,1.));
#1201=DIRECTION('ref_axis',(-1.,0.,0.));
#1202=DIRECTION('',(1.,0.,0.));
#1203=DIRECTION('',(-1.,0.,0.));
#1204=DIRECTION('center_axis',(-1.,0.,0.));
#1205=DIRECTION('ref_axis',(0.,0.,1.));
#1206=DIRECTION('',(0.,0.,-1.));
#1207=DIRECTION('',(0.,1.,0.));
#1208=DIRECTION('',(0.,0.,1.));
#1209=DIRECTION('',(0.,1.,0.));
#1210=DIRECTION('center_axis',(0.,0.,-1.));
#1211=DIRECTION('ref_axis',(-1.,0.,0.));
#1212=DIRECTION('',(1.,0.,0.));
#1213=DIRECTION('',(-1.,9.31981552675892E-17,0.));
#1214=DIRECTION('',(0.,1.,0.));
#1215=DIRECTION('center_axis',(1.,0.,0.));
#1216=DIRECTION('ref_axis',(0.,0.,-1.));
#1217=DIRECTION('',(0.,0.,1.));
#1218=DIRECTION('',(0.,0.,-1.));
#1219=DIRECTION('',(0.,1.,0.));
#1220=DIRECTION('center_axis',(0.,0.,1.));
#1221=DIRECTION('ref_axis',(1.,0.,0.));
#1222=DIRECTION('',(-1.,0.,0.));
#1223=DIRECTION('',(1.,-9.31981552675892E-17,0.));
#1224=DIRECTION('center_axis',(-1.,0.,0.));
#1225=DIRECTION('ref_axis',(0.,0.,1.));
#1226=DIRECTION('',(0.,0.,-1.));
#1227=DIRECTION('',(0.,1.,0.));
#1228=DIRECTION('',(0.,0.,1.));
#1229=DIRECTION('',(0.,1.,0.));
#1230=DIRECTION('center_axis',(0.,0.,-1.));
#1231=DIRECTION('ref_axis',(-1.,0.,0.));
#1232=DIRECTION('',(1.,0.,0.));
#1233=DIRECTION('',(-1.,9.31981552675892E-17,0.));
#1234=DIRECTION('',(0.,1.,0.));
#1235=DIRECTION('center_axis',(1.,0.,0.));
#1236=DIRECTION('ref_axis',(0.,0.,-1.));
#1237=DIRECTION('',(0.,0.,1.));
#1238=DIRECTION('',(0.,0.,-1.));
#1239=DIRECTION('',(0.,1.,0.));
#1240=DIRECTION('center_axis',(0.,0.,1.));
#1241=DIRECTION('ref_axis',(1.,0.,0.));
#1242=DIRECTION('',(-1.,0.,0.));
#1243=DIRECTION('',(1.,-9.31981552675892E-17,0.));
#1244=DIRECTION('center_axis',(0.,1.,0.));
#1245=DIRECTION('ref_axis',(-1.,0.,0.));
#1246=DIRECTION('',(1.,0.,0.));
#1247=DIRECTION('',(0.,0.,1.));
#1248=DIRECTION('',(-1.,0.,0.));
#1249=DIRECTION('',(0.,0.,1.));
#1250=DIRECTION('center_axis',(-1.,0.,0.));
#1251=DIRECTION('ref_axis',(0.,-1.,0.));
#1252=DIRECTION('',(0.,1.,0.));
#1253=DIRECTION('',(0.,-1.,0.));
#1254=DIRECTION('',(0.,0.,1.));
#1255=DIRECTION('center_axis',(0.,-1.,0.));
#1256=DIRECTION('ref_axis',(1.,0.,0.));
#1257=DIRECTION('',(-1.,0.,0.));
#1258=DIRECTION('',(1.,0.,0.));
#1259=DIRECTION('',(0.,0.,1.));
#1260=DIRECTION('center_axis',(1.,0.,0.));
#1261=DIRECTION('ref_axis',(0.,1.,0.));
#1262=DIRECTION('',(0.,-1.,0.));
#1263=DIRECTION('',(0.,1.,0.));
#1264=DIRECTION('center_axis',(0.,0.,1.));
#1265=DIRECTION('ref_axis',(-1.,0.,0.));
#1266=DIRECTION('',(-3.83496726986237E-17,-1.,0.));
#1267=DIRECTION('center_axis',(0.,0.,1.));
#1268=DIRECTION('ref_axis',(-1.,-1.77635683940025E-15,0.));
#1269=DIRECTION('',(1.,-1.04124082028151E-16,0.));
#1270=DIRECTION('center_axis',(0.,0.,1.));
#1271=DIRECTION('ref_axis',(-1.77635683940025E-15,-1.,0.));
#1272=DIRECTION('',(0.,1.,0.));
#1273=DIRECTION('center_axis',(0.,0.,1.));
#1274=DIRECTION('ref_axis',(1.,-1.77635683940025E-15,0.));
#1275=DIRECTION('',(-1.,-1.04124082028151E-16,0.));
#1276=DIRECTION('center_axis',(0.,0.,1.));
#1277=DIRECTION('ref_axis',(-8.88178419700125E-16,1.,0.));
#1278=DIRECTION('center_axis',(0.,0.,1.));
#1279=DIRECTION('ref_axis',(-0.707106781186547,-0.707106781186547,0.));
#1280=DIRECTION('',(0.,0.,-1.));
#1281=DIRECTION('center_axis',(0.,0.,1.));
#1282=DIRECTION('ref_axis',(-0.707106781186547,-0.707106781186547,0.));
#1283=DIRECTION('',(0.,0.,1.));
#1284=DIRECTION('center_axis',(-9.31981552675892E-17,-1.,0.));
#1285=DIRECTION('ref_axis',(1.,-9.31981552675892E-17,0.));
#1286=DIRECTION('',(-1.,9.31981552675892E-17,0.));
#1287=DIRECTION('',(0.,0.,-1.));
#1288=DIRECTION('center_axis',(0.,0.,1.));
#1289=DIRECTION('ref_axis',(1.,0.,0.));
#1290=DIRECTION('',(0.,1.,0.));
#1291=DIRECTION('center_axis',(0.,0.,1.));
#1292=DIRECTION('ref_axis',(-0.707106781186547,0.707106781186547,0.));
#1293=DIRECTION('',(1.,0.,0.));
#1294=DIRECTION('center_axis',(0.,0.,1.));
#1295=DIRECTION('ref_axis',(0.707106781186547,0.707106781186547,0.));
#1296=DIRECTION('',(0.,-1.,0.));
#1297=DIRECTION('center_axis',(0.,0.,1.));
#1298=DIRECTION('ref_axis',(0.707106781186546,-0.707106781186549,0.));
#1299=DIRECTION('center_axis',(0.,0.,1.));
#1300=DIRECTION('ref_axis',(-0.707106781186547,0.707106781186547,0.));
#1301=DIRECTION('',(0.,0.,-1.));
#1302=DIRECTION('',(0.,0.,1.));
#1303=DIRECTION('center_axis',(0.,1.,0.));
#1304=DIRECTION('ref_axis',(-1.,0.,0.));
#1305=DIRECTION('',(0.,0.,1.));
#1306=DIRECTION('center_axis',(0.,0.,1.));
#1307=DIRECTION('ref_axis',(0.707106781186547,0.707106781186547,0.));
#1308=DIRECTION('',(0.,0.,-1.));
#1309=DIRECTION('center_axis',(0.,0.,1.));
#1310=DIRECTION('ref_axis',(0.707106781186546,-0.707106781186549,0.));
#1311=DIRECTION('',(0.,0.,1.));
#1312=DIRECTION('center_axis',(-1.,0.,0.));
#1313=DIRECTION('ref_axis',(0.,-1.,0.));
#1314=DIRECTION('center_axis',(1.,0.,0.));
#1315=DIRECTION('ref_axis',(0.,1.,0.));
#1316=DIRECTION('center_axis',(0.,0.,1.));
#1317=DIRECTION('ref_axis',(1.,0.,0.));
#1318=DIRECTION('center_axis',(0.,0.,1.));
#1319=DIRECTION('ref_axis',(-1.,0.,0.));
#1320=DIRECTION('center_axis',(0.,0.,1.));
#1321=DIRECTION('ref_axis',(1.,-1.77635683940025E-15,0.));
#1322=DIRECTION('',(0.,1.,0.));
#1323=DIRECTION('center_axis',(0.,0.,1.));
#1324=DIRECTION('ref_axis',(-1.77635683940025E-15,-1.,0.));
#1325=DIRECTION('',(1.,-1.04124082028151E-16,0.));
#1326=DIRECTION('center_axis',(0.,0.,1.));
#1327=DIRECTION('ref_axis',(-1.,0.,0.));
#1328=DIRECTION('',(-3.83496726986237E-17,-1.,0.));
#1329=DIRECTION('center_axis',(0.,0.,1.));
#1330=DIRECTION('ref_axis',(-8.88178419700127E-16,1.,0.));
#1331=DIRECTION('',(-1.,-2.08248164056301E-16,0.));
#1332=DIRECTION('',(0.,-1.,0.));
#1333=DIRECTION('',(1.,0.,0.));
#1334=DIRECTION('',(0.,1.,0.));
#1335=DIRECTION('',(-1.,0.,0.));
#1336=DIRECTION('center_axis',(1.,0.,0.));
#1337=DIRECTION('ref_axis',(0.,1.,0.));
#1338=DIRECTION('',(0.,0.,1.));
#1339=DIRECTION('',(0.,1.,0.));
#1340=DIRECTION('',(0.,0.,1.));
#1341=DIRECTION('center_axis',(0.,0.,1.));
#1342=DIRECTION('ref_axis',(-1.77635683940025E-15,-1.,0.));
#1343=DIRECTION('center_axis',(0.,0.,1.));
#1344=DIRECTION('ref_axis',(-1.77635683940025E-15,-1.,0.));
#1345=DIRECTION('',(0.,0.,1.));
#1346=DIRECTION('center_axis',(-1.04124082028151E-16,-1.,0.));
#1347=DIRECTION('ref_axis',(1.,-1.04124082028151E-16,0.));
#1348=DIRECTION('',(1.,-1.04124082028151E-16,0.));
#1349=DIRECTION('',(0.,0.,1.));
#1350=DIRECTION('center_axis',(0.,0.,1.));
#1351=DIRECTION('ref_axis',(-1.,0.,0.));
#1352=DIRECTION('center_axis',(0.,0.,1.));
#1353=DIRECTION('ref_axis',(-1.,0.,0.));
#1354=DIRECTION('',(0.,0.,1.));
#1355=DIRECTION('center_axis',(-1.,3.83496726986237E-17,0.));
#1356=DIRECTION('ref_axis',(-3.83496726986237E-17,-1.,0.));
#1357=DIRECTION('',(-3.83496726986237E-17,-1.,0.));
#1358=DIRECTION('',(0.,0.,1.));
#1359=DIRECTION('center_axis',(0.,0.,1.));
#1360=DIRECTION('ref_axis',(-8.88178419700127E-16,1.,0.));
#1361=DIRECTION('center_axis',(0.,0.,1.));
#1362=DIRECTION('ref_axis',(-8.88178419700127E-16,1.,0.));
#1363=DIRECTION('',(0.,0.,1.));
#1364=DIRECTION('center_axis',(-2.08248164056301E-16,1.,0.));
#1365=DIRECTION('ref_axis',(-1.,-2.08248164056301E-16,0.));
#1366=DIRECTION('',(-1.,-2.08248164056301E-16,0.));
#1367=DIRECTION('',(0.,0.,1.));
#1368=DIRECTION('center_axis',(0.,0.,1.));
#1369=DIRECTION('ref_axis',(1.,-1.77635683940025E-15,0.));
#1370=DIRECTION('center_axis',(0.,0.,1.));
#1371=DIRECTION('ref_axis',(1.,-1.77635683940025E-15,0.));
#1372=DIRECTION('center_axis',(0.,0.,1.));
#1373=DIRECTION('ref_axis',(-1.,0.,0.));
#1374=DIRECTION('center_axis',(1.,0.,0.));
#1375=DIRECTION('ref_axis',(0.,-1.,0.));
#1376=DIRECTION('',(0.,0.,-1.));
#1377=DIRECTION('',(0.,-1.,0.));
#1378=DIRECTION('',(0.,0.,-1.));
#1379=DIRECTION('center_axis',(0.,1.,0.));
#1380=DIRECTION('ref_axis',(1.,0.,0.));
#1381=DIRECTION('',(1.,0.,0.));
#1382=DIRECTION('',(0.,0.,-1.));
#1383=DIRECTION('center_axis',(-1.,0.,0.));
#1384=DIRECTION('ref_axis',(0.,1.,0.));
#1385=DIRECTION('',(0.,1.,0.));
#1386=DIRECTION('',(0.,0.,-1.));
#1387=DIRECTION('center_axis',(0.,-1.,0.));
#1388=DIRECTION('ref_axis',(-1.,0.,0.));
#1389=DIRECTION('',(-1.,0.,0.));
#1390=DIRECTION('center_axis',(0.,0.,-1.));
#1391=DIRECTION('ref_axis',(-1.,0.,0.));
#1392=DIRECTION('',(0.,0.,1.));
#1393=DIRECTION('',(1.,0.,0.));
#1394=CARTESIAN_POINT('',(0.,0.,0.));
#1395=CARTESIAN_POINT('',(0.,0.,0.));
#1396=CARTESIAN_POINT('Origin',(52.2231999874115,-12.3,10.));
#1397=CARTESIAN_POINT('',(54.2231999874115,-12.3,10.));
#1398=CARTESIAN_POINT('Origin',(52.2231999874115,-12.3,10.));
#1399=CARTESIAN_POINT('',(54.2231999874115,-12.3,2.));
#1400=CARTESIAN_POINT('',(54.2231999874115,-12.3,10.));
#1401=CARTESIAN_POINT('Origin',(52.2231999874115,-12.3,2.));
#1402=CARTESIAN_POINT('Origin',(52.2231999874115,-12.3,2.));
#1403=CARTESIAN_POINT('Origin',(46.4731999874115,57.45,10.));
#1404=CARTESIAN_POINT('',(48.4731999874115,57.45,10.));
#1405=CARTESIAN_POINT('Origin',(46.4731999874115,57.45,10.));
#1406=CARTESIAN_POINT('',(48.4731999874115,57.45,2.));
#1407=CARTESIAN_POINT('',(48.4731999874115,57.45,10.));
#1408=CARTESIAN_POINT('Origin',(46.4731999874115,57.45,2.));
#1409=CARTESIAN_POINT('Origin',(46.4731999874115,57.45,2.));
#1410=CARTESIAN_POINT('Origin',(46.4731999874115,3.44999999999999,10.));
#1411=CARTESIAN_POINT('',(48.4731999874115,3.44999999999999,10.));
#1412=CARTESIAN_POINT('Origin',(46.4731999874115,3.44999999999999,10.));
#1413=CARTESIAN_POINT('',(48.4731999874115,3.44999999999999,2.));
#1414=CARTESIAN_POINT('',(48.4731999874115,3.44999999999999,10.));
#1415=CARTESIAN_POINT('Origin',(46.4731999874115,3.44999999999999,2.));
#1416=CARTESIAN_POINT('Origin',(46.4731999874115,3.44999999999999,2.));
#1417=CARTESIAN_POINT('Origin',(8.7231999874115,-48.8,10.));
#1418=CARTESIAN_POINT('',(10.7231999874115,-48.8,10.));
#1419=CARTESIAN_POINT('Origin',(8.7231999874115,-48.8,10.));
#1420=CARTESIAN_POINT('',(10.7231999874115,-48.8,2.));
#1421=CARTESIAN_POINT('',(10.7231999874115,-48.8,10.));
#1422=CARTESIAN_POINT('Origin',(8.7231999874115,-48.8,2.));
#1423=CARTESIAN_POINT('Origin',(8.7231999874115,-48.8,2.));
#1424=CARTESIAN_POINT('Origin',(24.8231999874115,-12.3,10.));
#1425=CARTESIAN_POINT('',(26.8231999874115,-12.3,10.));
#1426=CARTESIAN_POINT('Origin',(24.8231999874115,-12.3,10.));
#1427=CARTESIAN_POINT('',(26.8231999874115,-12.3,2.));
#1428=CARTESIAN_POINT('',(26.8231999874115,-12.3,10.));
#1429=CARTESIAN_POINT('Origin',(24.8231999874115,-12.3,2.));
#1430=CARTESIAN_POINT('Origin',(24.8231999874115,-12.3,2.));
#1431=CARTESIAN_POINT('Origin',(-5.5268000125885,57.45,10.));
#1432=CARTESIAN_POINT('',(-3.5268000125885,57.45,10.));
#1433=CARTESIAN_POINT('Origin',(-5.5268000125885,57.45,10.));
#1434=CARTESIAN_POINT('',(-3.5268000125885,57.45,2.));
#1435=CARTESIAN_POINT('',(-3.5268000125885,57.45,10.));
#1436=CARTESIAN_POINT('Origin',(-5.5268000125885,57.45,2.));
#1437=CARTESIAN_POINT('Origin',(-5.5268000125885,57.45,2.));
#1438=CARTESIAN_POINT('Origin',(-5.5268000125885,3.45,10.));
#1439=CARTESIAN_POINT('',(-3.5268000125885,3.45,10.));
#1440=CARTESIAN_POINT('Origin',(-5.5268000125885,3.45,10.));
#1441=CARTESIAN_POINT('',(-3.5268000125885,3.45,2.));
#1442=CARTESIAN_POINT('',(-3.5268000125885,3.45,10.));
#1443=CARTESIAN_POINT('Origin',(-5.5268000125885,3.45,2.));
#1444=CARTESIAN_POINT('Origin',(-5.5268000125885,3.45,2.));
#1445=CARTESIAN_POINT('Origin',(-19.1768000125885,-48.8,10.));
#1446=CARTESIAN_POINT('',(-17.1768000125885,-48.8,10.));
#1447=CARTESIAN_POINT('Origin',(-19.1768000125885,-48.8,10.));
#1448=CARTESIAN_POINT('',(-17.1768000125885,-48.8,2.));
#1449=CARTESIAN_POINT('',(-17.1768000125885,-48.8,10.));
#1450=CARTESIAN_POINT('Origin',(-19.1768000125885,-48.8,2.));
#1451=CARTESIAN_POINT('Origin',(-19.1768000125885,-48.8,2.));
#1452=CARTESIAN_POINT('Origin',(36.9231999874115,65.9,22.5));
#1453=CARTESIAN_POINT('',(36.9231999874115,62.9,27.5));
#1454=CARTESIAN_POINT('',(36.9231999874115,62.9,22.5));
#1455=CARTESIAN_POINT('',(36.9231999874115,62.9,16.25));
#1456=CARTESIAN_POINT('',(36.9231999874115,65.9,27.5));
#1457=CARTESIAN_POINT('',(36.9231999874115,65.9,27.5));
#1458=CARTESIAN_POINT('',(36.9231999874115,65.9,22.5));
#1459=CARTESIAN_POINT('',(36.9231999874115,65.9,11.25));
#1460=CARTESIAN_POINT('',(36.9231999874115,65.9,22.5));
#1461=CARTESIAN_POINT('Origin',(26.9231999874115,65.9,22.5));
#1462=CARTESIAN_POINT('',(26.9231999874115,62.9,22.5));
#1463=CARTESIAN_POINT('',(1.3731999874115,62.9,22.5));
#1464=CARTESIAN_POINT('',(26.9231999874115,65.9,22.5));
#1465=CARTESIAN_POINT('',(47.5231999874115,65.9,22.5));
#1466=CARTESIAN_POINT('',(26.9231999874115,65.9,22.5));
#1467=CARTESIAN_POINT('Origin',(26.9231999874115,65.9,27.5));
#1468=CARTESIAN_POINT('',(26.9231999874115,62.9,27.5));
#1469=CARTESIAN_POINT('',(26.9231999874115,62.9,18.75));
#1470=CARTESIAN_POINT('',(26.9231999874115,65.9,27.5));
#1471=CARTESIAN_POINT('',(26.9231999874115,65.9,13.75));
#1472=CARTESIAN_POINT('',(26.9231999874115,65.9,27.5));
#1473=CARTESIAN_POINT('Origin',(36.9231999874115,65.9,27.5));
#1474=CARTESIAN_POINT('',(6.3731999874115,62.9,27.5));
#1475=CARTESIAN_POINT('',(52.5231999874115,65.9,27.5));
#1476=CARTESIAN_POINT('Origin',(-14.3768000125885,-59.9,10.5));
#1477=CARTESIAN_POINT('',(-14.3768000125885,-56.9,25.8));
#1478=CARTESIAN_POINT('',(-14.3768000125885,-56.9,10.5));
#1479=CARTESIAN_POINT('',(-14.3768000125885,-56.9,10.25));
#1480=CARTESIAN_POINT('',(-14.3768000125885,-59.9,25.8));
#1481=CARTESIAN_POINT('',(-14.3768000125885,-59.9,25.8));
#1482=CARTESIAN_POINT('',(-14.3768000125885,-59.9,10.5));
#1483=CARTESIAN_POINT('',(-14.3768000125885,-59.9,5.25));
#1484=CARTESIAN_POINT('',(-14.3768000125885,-59.9,10.5));
#1485=CARTESIAN_POINT('Origin',(3.92319998741151,-59.9,10.5));
#1486=CARTESIAN_POINT('',(3.92319998741151,-56.9,10.5));
#1487=CARTESIAN_POINT('',(34.5231999874115,-56.9,10.5));
#1488=CARTESIAN_POINT('',(3.92319998741151,-59.9,10.5));
#1489=CARTESIAN_POINT('',(-11.6268000125885,-59.9,10.5));
#1490=CARTESIAN_POINT('',(3.92319998741151,-59.9,10.5));
#1491=CARTESIAN_POINT('Origin',(3.92319998741151,-59.9,25.8));
#1492=CARTESIAN_POINT('',(3.92319998741151,-56.9,25.8));
#1493=CARTESIAN_POINT('',(3.92319998741151,-56.9,17.9));
#1494=CARTESIAN_POINT('',(3.92319998741151,-59.9,25.8));
#1495=CARTESIAN_POINT('',(3.92319998741151,-59.9,12.9));
#1496=CARTESIAN_POINT('',(3.92319998741151,-59.9,25.8));
#1497=CARTESIAN_POINT('Origin',(-14.3768000125885,-59.9,25.8));
#1498=CARTESIAN_POINT('',(25.3731999874115,-56.9,25.8));
#1499=CARTESIAN_POINT('',(-20.7768000125885,-59.9,25.8));
#1500=CARTESIAN_POINT('Origin',(21.7231999874115,-59.9,10.5));
#1501=CARTESIAN_POINT('',(21.7231999874115,-56.9,25.2));
#1502=CARTESIAN_POINT('',(21.7231999874115,-56.9,10.5));
#1503=CARTESIAN_POINT('',(21.7231999874115,-56.9,10.25));
#1504=CARTESIAN_POINT('',(21.7231999874115,-59.9,25.2));
#1505=CARTESIAN_POINT('',(21.7231999874115,-59.9,25.2));
#1506=CARTESIAN_POINT('',(21.7231999874115,-59.9,10.5));
#1507=CARTESIAN_POINT('',(21.7231999874115,-59.9,5.25));
#1508=CARTESIAN_POINT('',(21.7231999874115,-59.9,10.5));
#1509=CARTESIAN_POINT('Origin',(55.3231999874115,-59.9,10.5));
#1510=CARTESIAN_POINT('',(55.3231999874115,-56.9,10.5));
#1511=CARTESIAN_POINT('',(60.2231999874115,-56.9,10.5));
#1512=CARTESIAN_POINT('',(55.3231999874115,-59.9,10.5));
#1513=CARTESIAN_POINT('',(14.0731999874115,-59.9,10.5));
#1514=CARTESIAN_POINT('',(55.3231999874115,-59.9,10.5));
#1515=CARTESIAN_POINT('Origin',(55.3231999874115,-59.9,25.2));
#1516=CARTESIAN_POINT('',(55.3231999874115,-56.9,25.2));
#1517=CARTESIAN_POINT('',(55.3231999874115,-56.9,17.6));
#1518=CARTESIAN_POINT('',(55.3231999874115,-59.9,25.2));
#1519=CARTESIAN_POINT('',(55.3231999874115,-59.9,12.6));
#1520=CARTESIAN_POINT('',(55.3231999874115,-59.9,25.2));
#1521=CARTESIAN_POINT('Origin',(21.7231999874115,-59.9,25.2));
#1522=CARTESIAN_POINT('',(43.4231999874115,-56.9,25.2));
#1523=CARTESIAN_POINT('',(-2.7268000125885,-59.9,25.2));
#1524=CARTESIAN_POINT('Origin',(65.1231999874115,-56.9,10.));
#1525=CARTESIAN_POINT('',(-24.1768000125885,-56.9,10.));
#1526=CARTESIAN_POINT('',(65.1231999874115,-56.9,10.));
#1527=CARTESIAN_POINT('',(42.7981999874115,-56.9,10.));
#1528=CARTESIAN_POINT('',(-24.1768000125885,-56.9,70.));
#1529=CARTESIAN_POINT('',(-24.1768000125885,-56.9,10.));
#1530=CARTESIAN_POINT('',(65.1231999874115,-56.9,70.));
#1531=CARTESIAN_POINT('',(65.1231999874115,-56.9,70.));
#1532=CARTESIAN_POINT('',(65.1231999874115,-56.9,10.));
#1533=CARTESIAN_POINT('Origin',(65.1231999874115,62.9,10.));
#1534=CARTESIAN_POINT('',(65.1231999874115,62.9,10.));
#1535=CARTESIAN_POINT('',(65.1231999874115,32.95,10.));
#1536=CARTESIAN_POINT('',(65.1231999874115,62.9,70.));
#1537=CARTESIAN_POINT('',(65.1231999874115,62.9,70.));
#1538=CARTESIAN_POINT('',(65.1231999874115,62.9,10.));
#1539=CARTESIAN_POINT('Origin',(-24.1768000125885,62.9,10.));
#1540=CARTESIAN_POINT('',(-24.1768000125885,62.9,10.));
#1541=CARTESIAN_POINT('',(-1.8518000125885,62.9,10.));
#1542=CARTESIAN_POINT('',(-24.1768000125885,62.9,70.));
#1543=CARTESIAN_POINT('',(-24.1768000125885,62.9,70.));
#1544=CARTESIAN_POINT('',(-24.1768000125885,62.9,10.));
#1545=CARTESIAN_POINT('Origin',(-24.1768000125885,-56.9,10.));
#1546=CARTESIAN_POINT('',(-24.1768000125885,-26.95,10.));
#1547=CARTESIAN_POINT('',(-24.1768000125885,-56.9,70.));
#1548=CARTESIAN_POINT('Origin',(20.4731999874115,3.,70.));
#1549=CARTESIAN_POINT('',(-27.1768000125885,60.9,70.));
#1550=CARTESIAN_POINT('',(-27.1768000125885,-54.9,70.));
#1551=CARTESIAN_POINT('',(-27.1768000125885,60.9,70.));
#1552=CARTESIAN_POINT('',(-22.1768000125885,-59.9,70.));
#1553=CARTESIAN_POINT('Origin',(-22.1768000125885,-54.9,70.));
#1554=CARTESIAN_POINT('',(63.1231999874115,-59.9,70.));
#1555=CARTESIAN_POINT('',(-22.1768000125885,-59.9,70.));
#1556=CARTESIAN_POINT('',(68.1231999874115,-54.9,70.));
#1557=CARTESIAN_POINT('Origin',(63.1231999874115,-54.9,70.));
#1558=CARTESIAN_POINT('',(68.1231999874115,60.9,70.));
#1559=CARTESIAN_POINT('',(68.1231999874115,-54.9,70.));
#1560=CARTESIAN_POINT('',(63.1231999874115,65.9,70.));
#1561=CARTESIAN_POINT('Origin',(63.1231999874115,60.9,70.));
#1562=CARTESIAN_POINT('',(-22.1768000125885,65.9,70.));
#1563=CARTESIAN_POINT('',(63.1231999874115,65.9,70.));
#1564=CARTESIAN_POINT('Origin',(-22.1768000125885,60.9,70.));
#1565=CARTESIAN_POINT('Origin',(-22.1768000125885,-54.9,0.));
#1566=CARTESIAN_POINT('',(-27.1768000125885,-54.9,0.));
#1567=CARTESIAN_POINT('',(-27.1768000125885,-54.9,0.));
#1568=CARTESIAN_POINT('',(-22.1768000125885,-59.9,0.));
#1569=CARTESIAN_POINT('Origin',(-22.1768000125885,-54.9,0.));
#1570=CARTESIAN_POINT('',(-22.1768000125885,-59.9,0.));
#1571=CARTESIAN_POINT('Origin',(-27.1768000125885,-59.9,0.));
#1572=CARTESIAN_POINT('',(63.1231999874115,-59.9,0.));
#1573=CARTESIAN_POINT('',(68.1231999874115,-59.9,0.));
#1574=CARTESIAN_POINT('',(63.1231999874115,-59.9,0.));
#1575=CARTESIAN_POINT('Origin',(20.4731999874115,2.99999999999999,0.));
#1576=CARTESIAN_POINT('',(-27.1768000125885,60.9,0.));
#1577=CARTESIAN_POINT('',(-27.1768000125885,-59.9,0.));
#1578=CARTESIAN_POINT('',(-22.1768000125885,65.9,0.));
#1579=CARTESIAN_POINT('Origin',(-22.1768000125885,60.9,0.));
#1580=CARTESIAN_POINT('',(63.1231999874115,65.9,0.));
#1581=CARTESIAN_POINT('',(-27.1768000125885,65.9,0.));
#1582=CARTESIAN_POINT('',(68.1231999874115,60.9,0.));
#1583=CARTESIAN_POINT('Origin',(63.1231999874115,60.9,0.));
#1584=CARTESIAN_POINT('',(68.1231999874115,-54.9,0.));
#1585=CARTESIAN_POINT('',(68.1231999874115,65.9,0.));
#1586=CARTESIAN_POINT('Origin',(63.1231999874115,-54.9,0.));
#1587=CARTESIAN_POINT('Origin',(-22.1768000125885,60.9,0.));
#1588=CARTESIAN_POINT('',(-22.1768000125885,65.9,0.));
#1589=CARTESIAN_POINT('',(-27.1768000125885,60.9,0.));
#1590=CARTESIAN_POINT('Origin',(68.1231999874115,65.9,0.));
#1591=CARTESIAN_POINT('',(63.1231999874115,65.9,0.));
#1592=CARTESIAN_POINT('Origin',(63.1231999874115,60.9,0.));
#1593=CARTESIAN_POINT('',(68.1231999874115,60.9,0.));
#1594=CARTESIAN_POINT('Origin',(63.1231999874115,-54.9,0.));
#1595=CARTESIAN_POINT('',(68.1231999874115,-54.9,0.));
#1596=CARTESIAN_POINT('Origin',(-27.1768000125885,65.9,0.));
#1597=CARTESIAN_POINT('Origin',(68.1231999874115,-59.9,0.));
#1598=CARTESIAN_POINT('Origin',(20.4731999874115,2.99999999999999,10.));
#1599=CARTESIAN_POINT('Origin',(20.4731999874115,3.,70.));
#1600=CARTESIAN_POINT('',(68.1231999874115,60.9,70.));
#1601=CARTESIAN_POINT('',(63.1231999874115,65.9,70.));
#1602=CARTESIAN_POINT('Origin',(63.1231999874115,60.9,70.));
#1603=CARTESIAN_POINT('',(68.1231999874115,-54.9,70.));
#1604=CARTESIAN_POINT('',(68.1231999874115,-54.9,70.));
#1605=CARTESIAN_POINT('',(63.1231999874115,-59.9,70.));
#1606=CARTESIAN_POINT('Origin',(63.1231999874115,-54.9,70.));
#1607=CARTESIAN_POINT('',(-22.1768000125885,-59.9,70.));
#1608=CARTESIAN_POINT('',(-22.1768000125885,-59.9,70.));
#1609=CARTESIAN_POINT('',(-27.1768000125885,-54.9,70.));
#1610=CARTESIAN_POINT('Origin',(-22.1768000125885,-54.9,70.));
#1611=CARTESIAN_POINT('',(-27.1768000125885,60.9,70.));
#1612=CARTESIAN_POINT('',(-27.1768000125885,60.9,70.));
#1613=CARTESIAN_POINT('',(-22.1768000125885,65.9,70.));
#1614=CARTESIAN_POINT('Origin',(-22.1768000125885,60.9,70.));
#1615=CARTESIAN_POINT('',(63.1231999874115,65.9,70.));
#1616=CARTESIAN_POINT('',(64.6231999874115,62.4,70.));
#1617=CARTESIAN_POINT('',(64.6231999874115,-56.4,70.));
#1618=CARTESIAN_POINT('',(64.6231999874115,62.4,70.));
#1619=CARTESIAN_POINT('',(-23.6768000125885,62.4,70.));
#1620=CARTESIAN_POINT('',(-23.6768000125885,62.4,70.));
#1621=CARTESIAN_POINT('',(-23.6768000125885,-56.4,70.));
#1622=CARTESIAN_POINT('',(-23.6768000125885,-56.4,70.));
#1623=CARTESIAN_POINT('',(64.6231999874115,-56.4,70.));
#1624=CARTESIAN_POINT('Origin',(68.1231999874115,-54.9,70.));
#1625=CARTESIAN_POINT('',(68.1231999874115,60.9,73.));
#1626=CARTESIAN_POINT('',(68.1231999874115,60.9,70.));
#1627=CARTESIAN_POINT('',(68.1231999874115,-54.9,73.));
#1628=CARTESIAN_POINT('',(68.1231999874115,-54.9,73.));
#1629=CARTESIAN_POINT('',(68.1231999874115,-54.9,70.));
#1630=CARTESIAN_POINT('Origin',(63.1231999874115,-54.9,70.));
#1631=CARTESIAN_POINT('',(63.1231999874115,-59.9,73.));
#1632=CARTESIAN_POINT('Origin',(63.1231999874115,-54.9,73.));
#1633=CARTESIAN_POINT('',(63.1231999874115,-59.9,70.));
#1634=CARTESIAN_POINT('Origin',(-22.1768000125885,-59.9,70.));
#1635=CARTESIAN_POINT('',(-22.1768000125885,-59.9,73.));
#1636=CARTESIAN_POINT('',(-22.1768000125885,-59.9,73.));
#1637=CARTESIAN_POINT('',(-22.1768000125885,-59.9,70.));
#1638=CARTESIAN_POINT('Origin',(-22.1768000125885,-54.9,70.));
#1639=CARTESIAN_POINT('',(-27.1768000125885,-54.9,73.));
#1640=CARTESIAN_POINT('Origin',(-22.1768000125885,-54.9,73.));
#1641=CARTESIAN_POINT('',(-27.1768000125885,-54.9,70.));
#1642=CARTESIAN_POINT('Origin',(-27.1768000125885,60.9,70.));
#1643=CARTESIAN_POINT('',(-27.1768000125885,60.9,73.));
#1644=CARTESIAN_POINT('',(-27.1768000125885,60.9,73.));
#1645=CARTESIAN_POINT('',(-27.1768000125885,60.9,70.));
#1646=CARTESIAN_POINT('Origin',(-22.1768000125885,60.9,70.));
#1647=CARTESIAN_POINT('',(-22.1768000125885,65.9,73.));
#1648=CARTESIAN_POINT('Origin',(-22.1768000125885,60.9,73.));
#1649=CARTESIAN_POINT('',(-22.1768000125885,65.9,70.));
#1650=CARTESIAN_POINT('Origin',(63.1231999874115,65.9,70.));
#1651=CARTESIAN_POINT('',(63.1231999874115,65.9,73.));
#1652=CARTESIAN_POINT('',(63.1231999874115,65.9,73.));
#1653=CARTESIAN_POINT('',(63.1231999874115,65.9,70.));
#1654=CARTESIAN_POINT('Origin',(63.1231999874115,60.9,70.));
#1655=CARTESIAN_POINT('Origin',(63.1231999874115,60.9,73.));
#1656=CARTESIAN_POINT('Origin',(20.4731999874115,3.,73.));
#1657=CARTESIAN_POINT('Origin',(64.6231999874115,62.4,70.));
#1658=CARTESIAN_POINT('',(64.6231999874115,-56.4,69.));
#1659=CARTESIAN_POINT('',(64.6231999874115,-56.4,70.));
#1660=CARTESIAN_POINT('',(64.6231999874115,62.4,69.));
#1661=CARTESIAN_POINT('',(64.6231999874115,62.4,69.));
#1662=CARTESIAN_POINT('',(64.6231999874115,62.4,70.));
#1663=CARTESIAN_POINT('Origin',(-23.6768000125885,62.4,70.));
#1664=CARTESIAN_POINT('',(-23.6768000125885,62.4,69.));
#1665=CARTESIAN_POINT('',(-23.6768000125885,62.4,69.));
#1666=CARTESIAN_POINT('',(-23.6768000125885,62.4,70.));
#1667=CARTESIAN_POINT('Origin',(-23.6768000125885,-56.4,70.));
#1668=CARTESIAN_POINT('',(-23.6768000125885,-56.4,69.));
#1669=CARTESIAN_POINT('',(-23.6768000125885,-56.4,69.));
#1670=CARTESIAN_POINT('',(-23.6768000125885,-56.4,70.));
#1671=CARTESIAN_POINT('Origin',(64.6231999874115,-56.4,70.));
#1672=CARTESIAN_POINT('',(64.6231999874115,-56.4,69.));
#1673=CARTESIAN_POINT('Origin',(20.4731999874115,3.,69.));
#1674=CARTESIAN_POINT('',(0.,0.,0.));
#1675=UNCERTAINTY_MEASURE_WITH_UNIT(LENGTH_MEASURE(0.01),#1681,
'DISTANCE_ACCURACY_VALUE',
'Maximum model space distance between geometric entities at asserted c
onnectivities');
#1676=UNCERTAINTY_MEASURE_WITH_UNIT(LENGTH_MEASURE(0.01),#1681,
'DISTANCE_ACCURACY_VALUE',
'Maximum model space distance between geometric entities at asserted c
onnectivities');
#1677=UNCERTAINTY_MEASURE_WITH_UNIT(LENGTH_MEASURE(0.01),#1681,
'DISTANCE_ACCURACY_VALUE',
'Maximum model space distance between geometric entities at asserted c
onnectivities');
#1678=(
GEOMETRIC_REPRESENTATION_CONTEXT(3)
GLOBAL_UNCERTAINTY_ASSIGNED_CONTEXT((#1675))
GLOBAL_UNIT_ASSIGNED_CONTEXT((#1681,#1683,#1684))
REPRESENTATION_CONTEXT('','3D')
);
#1679=(
GEOMETRIC_REPRESENTATION_CONTEXT(3)
GLOBAL_UNCERTAINTY_ASSIGNED_CONTEXT((#1676))
GLOBAL_UNIT_ASSIGNED_CONTEXT((#1681,#1683,#1684))
REPRESENTATION_CONTEXT('','3D')
);
#1680=(
GEOMETRIC_REPRESENTATION_CONTEXT(3)
GLOBAL_UNCERTAINTY_ASSIGNED_CONTEXT((#1677))
GLOBAL_UNIT_ASSIGNED_CONTEXT((#1681,#1683,#1684))
REPRESENTATION_CONTEXT('','3D')
);
#1681=(
LENGTH_UNIT()
NAMED_UNIT(*)
SI_UNIT(.MILLI.,.METRE.)
);
#1682=(
LENGTH_UNIT()
NAMED_UNIT(*)
SI_UNIT($,.METRE.)
);
#1683=(
NAMED_UNIT(*)
PLANE_ANGLE_UNIT()
SI_UNIT($,.RADIAN.)
);
#1684=(
NAMED_UNIT(*)
SI_UNIT($,.STERADIAN.)
SOLID_ANGLE_UNIT()
);
#1685=SHAPE_DEFINITION_REPRESENTATION(#1687,#1690);
#1686=SHAPE_DEFINITION_REPRESENTATION(#1688,#1691);
#1687=PRODUCT_DEFINITION_SHAPE('',$,#1693);
#1688=PRODUCT_DEFINITION_SHAPE('',$,#1694);
#1689=PRODUCT_DEFINITION_SHAPE($,$,#14);
#1690=SHAPE_REPRESENTATION('',(#1015,#1107),#1678);
#1691=SHAPE_REPRESENTATION('',(#1016),#1679);
#1692=PRODUCT_DEFINITION_CONTEXT('part definition',#1700,'design');
#1693=PRODUCT_DEFINITION('Vacuum controller case',
'Vacuum controller case v10',#1695,#1692);
#1694=PRODUCT_DEFINITION('Case','Case',#1696,#1692);
#1695=PRODUCT_DEFINITION_FORMATION('',$,#1702);
#1696=PRODUCT_DEFINITION_FORMATION('',$,#1703);
#1697=PRODUCT_RELATED_PRODUCT_CATEGORY('Vacuum controller case v10',
'Vacuum controller case v10',(#1702));
#1698=PRODUCT_RELATED_PRODUCT_CATEGORY('Case','Case',(#1703));
#1699=APPLICATION_PROTOCOL_DEFINITION('international standard',
'automotive_design',2009,#1700);
#1700=APPLICATION_CONTEXT(
'Core Data for Automotive Mechanical Design Process');
#1701=PRODUCT_CONTEXT('part definition',#1700,'mechanical');
#1702=PRODUCT('Vacuum controller case','Vacuum controller case v10',$,(#1701));
#1703=PRODUCT('Case','Case',$,(#1701));
#1704=PRESENTATION_STYLE_ASSIGNMENT((#1705));
#1705=SURFACE_STYLE_USAGE(.BOTH.,#1706);
#1706=SURFACE_SIDE_STYLE('',(#1707));
#1707=SURFACE_STYLE_FILL_AREA(#1708);
#1708=FILL_AREA_STYLE('Steel - Satin',(#1709));
#1709=FILL_AREA_STYLE_COLOUR('Steel - Satin',#1710);
#1710=COLOUR_RGB('Steel - Satin',0.627450980392157,0.627450980392157,0.627450980392157);
ENDSEC;
END-ISO-10303-21;
